<svg width="714" height="187" viewBox="0 0 714 187" fill="none" xmlns="http://www.w3.org/2000/svg">
<path d="M693.648 66.1659C753.606 111.484 658.571 147.368 623.153 156.517C542.93 178.236 459.352 184.002 376.431 185C376.602 184.173 377.324 184.154 378.008 184.078C381.115 183.727 385.599 183.774 388.953 183.622C446.384 180.905 503.958 175.271 559.85 161.619C588.191 154.693 631.97 141.43 653.707 121.859C702.692 77.7567 614.45 44.989 582.462 35.2983C520.717 16.5915 454.574 9.50406 390.349 5.77031C387.195 5.58979 383.908 5.25727 380.763 4.86774C378.939 4.79174 377.115 4.93425 375.291 4.86774C374.74 4.84874 373.6 5.20977 373.695 4.41171C379.689 4.52572 385.722 4.2597 391.727 4.39271C461.842 5.94132 536.365 12.7153 604.456 29.7119C632.986 36.8374 670.105 48.3712 693.648 66.1564V66.1659Z" fill="#CF752F"/>
<path d="M459.969 56.9123C459.08 51.4899 451.178 53.78 450.459 49.162C450.156 47.222 450.052 43.4746 451.632 42.216C453.052 41.0804 459.837 40.7303 462.335 40.2004C470.152 38.5538 477.855 36.1501 485.255 33.1692C488.463 34.3237 491.425 34.8158 491.785 38.7241C492.447 45.9634 490.942 54.2532 491.33 61.4357L491.311 90.7527L508.582 78.7155L508.317 77.5705C506.708 77.7219 504.219 77.8071 503.67 75.8955C503.386 74.9113 503.377 68.0505 503.585 66.9149C504.323 62.9877 512.376 65.6563 515.14 65.7888C519.938 66.0065 525.814 66.0065 530.621 65.7888C534.047 65.6374 540.7 62.7606 541.286 67.8045C541.608 70.5772 542.185 77.0121 538.76 77.5515C531.946 78.6303 531.927 77.7313 525.691 81.7532C524.253 82.6806 514.222 89.8726 514.089 90.5918L534.71 124.801L538.788 127.536C538.391 121.678 538.22 115.565 540.283 109.953C544.75 97.8122 566.582 94.9165 576.736 89.0777C576.319 86.3807 577.663 77.296 575.628 75.7157C574.427 74.7883 572.61 75.4129 571.711 76.4254C568.976 79.501 572.647 84.1001 571.483 86.6457C570.319 89.1913 552.207 95.4086 549.027 97.7933C544.438 98.9951 544.163 96.4401 543.624 92.721C539.157 62.0603 593.476 53.4867 604.898 75.0533C610.491 85.6142 606.705 109.594 607.595 122.322C607.652 123.202 607.869 123.959 608.078 124.801C609.866 124.12 611.096 122.435 613.197 123.069C614.181 123.372 618.061 128.123 618.109 129.116C618.336 133.716 607.141 139.564 603.318 140.718C594.451 143.396 585.631 141.674 579.224 134.87C570.111 143.519 553.996 143.794 544.239 136.157C544.012 136.053 543.842 139.554 541.069 139.819C530.233 138.608 519.266 137.908 508.336 138.4C504.692 138.561 500.642 139.564 496.989 139.668C490.592 139.848 483.552 138.144 477.031 137.946C468.798 137.69 461.218 139.337 453.392 139.365C449.323 139.384 449.626 134.066 449.986 130.924C450.818 123.685 458.389 130.214 459.496 122.719L459.979 79.3685C456.903 81.7437 455.086 93.2415 452.134 94.4812C449.777 95.4748 442.604 90.8189 439.851 89.7307C437.816 88.9263 435.27 87.4879 433.207 89.1534C432.857 89.4373 429.309 94.7556 429.205 95.1436C428.466 97.9352 428.76 115.859 429.082 119.578C429.365 122.852 430.605 125.927 434.078 126.845C437.551 127.763 443.068 125.274 443.655 129.987C443.929 132.249 444.308 138.665 441.507 139.214C439.936 139.516 435.337 139.005 433.416 138.864C423.583 138.144 413.789 137.548 403.862 137.936C399.556 138.106 394.465 139.318 390.245 139.242C387.794 139.204 387.254 137.018 387.046 137.018C386.393 137.018 380.27 140.046 378.236 140.472C372.709 141.636 366.833 140.908 361.883 138.154C359.773 136.98 358.221 135.201 356.243 133.895C349.08 142.403 330.456 142.649 322.337 135.911C321.495 135.211 319.602 132.561 319.384 132.495C318.391 132.192 318.731 133.167 318.703 133.621C318.542 136.498 319.498 137.595 316.186 138.854C304.3 137.558 292.291 137.047 280.301 137.472C277.936 137.558 274.955 138.286 272.589 138.39C270.658 138.476 266.059 138.949 265.075 137.283C264.28 135.958 264.233 127.839 265.586 126.836C267.763 125.208 271.037 127.498 274.169 125.426C275.655 124.442 275.929 121.754 275.996 119.984C276.336 111.146 274.964 100.774 274.623 91.841C274.491 88.5099 275.011 84.5543 274.661 81.3557C274.586 80.6744 274.567 79.9552 273.743 79.7849L250.899 138.258C249.366 139.838 243.035 139.412 241.834 137.349C235.011 119.701 229.352 101.579 222.614 83.8919C222.16 82.6901 221.734 80.8637 220.598 80.2391C220.409 86.9769 219.605 93.7147 219.217 100.434C218.876 106.197 217.731 117.022 218.365 122.218C219.198 128.993 226.626 124.12 228.084 127.489C228.831 129.221 228.85 136.914 227.09 137.946C225.33 138.977 218.781 137.529 216.302 137.444C212.8 137.321 208.864 137.33 205.362 137.444C202.609 137.539 195.918 139.857 195.171 135.864C194.915 134.501 195.01 128.757 195.502 127.593C196.921 124.252 204.35 127.801 205.58 121.319C206.678 115.518 206.129 108.6 206.526 102.733C207.179 93.0522 208.324 83.343 208.788 73.6527C208.977 69.6498 209.867 57.8113 208.561 54.8115C206.924 51.0168 202.911 54.8399 201.132 51.3385C200.11 49.3418 199.675 40.8155 203.224 40.3423C211.04 41.2602 218.81 42.5472 226.73 42.0835C229.702 41.9132 239.638 39.6042 241.493 41.4117L257.628 86.6078L275.314 41.6104C275.977 41.0521 276.734 40.7303 277.614 40.6924C281.655 40.541 287.266 42.0078 291.657 42.1025C298.386 42.2444 305 41.6482 311.643 40.7398C315.306 40.948 314.908 47.0044 314.615 49.5784C313.934 55.6443 308.965 52.2186 307.546 53.3826C306.268 55.4739 305.663 58.4832 305.511 60.9153C304.754 72.8294 306.827 88.2449 307.366 100.434C307.584 105.449 306.372 122.88 310.101 125.861C311.71 127.148 314.463 126.372 316.432 126.571C315.561 120.041 315.353 112.726 318.703 106.812C324.494 96.5631 342.957 93.9702 352.903 88.7749C353.433 88.5004 353.868 88.2828 354.048 87.6488C354.512 86.0968 354.171 77.2109 353.575 75.5737C352.789 73.4067 349.695 74.3435 348.663 75.9049C346.014 79.9268 351.124 83.9013 348.001 86.5983L325.98 96.828C320.463 98.9289 320.283 89.9199 320.52 86.3712C322.507 57.1584 385.011 51.6603 385.011 84.5448V123.382C386.393 123.647 387.377 122.331 388.532 122.104C392.308 121.357 393.216 126.353 394.73 126.088C396.273 124.896 396.982 122.757 397.285 120.893L397.711 85.9454C394.957 79.5294 386.138 84.3934 386.819 75.0249C387.254 69.1577 392.838 70.9179 397.011 70.1987C405.717 68.694 414.272 65.6185 422.505 62.4862C423.952 62.4294 427.946 64.2463 428.656 65.4387C429.716 67.1988 428.315 71.8547 429.763 72.5077C431.173 70.1797 432.545 67.3786 434.513 65.4481C441.781 58.3034 451.67 65.4671 459.042 68.6845L459.969 68.2019C459.572 64.7384 460.509 60.1488 459.969 56.8461V56.9123ZM488.586 96.6577V37.8346C488.586 36.964 485.794 36.2164 484.848 36.3299C482.208 36.6422 475.924 39.6704 472.697 40.5694C466.319 42.339 459.714 43.2475 453.222 44.4872L453.364 48.9822C457.812 50.6099 461.947 51.4899 462.657 56.9502C464.313 69.6687 461.483 85.652 462.714 98.7207C461.711 106.045 463.054 114.884 462.439 122.161C461.928 128.274 458.001 129.599 452.673 130.526L452.758 135.873L453.837 136.63C461.275 135.76 468.628 135.069 476.104 135.239C481.091 135.353 486.031 136.252 491.075 136.621C492.21 136.706 493.355 136.592 494.482 136.621L494.283 130.233C491.302 129.873 488.577 126.675 488.577 123.675V104.37L500.708 125.17C501.872 129.022 500.642 130.252 496.724 130.46C496.034 130.924 496.052 135.466 496.724 136.422C498.078 137.368 506.121 135.779 508.317 135.693C519.199 135.258 530.044 136.043 540.832 136.876C541.769 136.233 540.274 131.643 540.813 130.252C533.688 130.763 531.284 123.543 527.688 118.981L510.332 89.5982C510.351 88.6802 512.66 87.9043 513.512 87.2986C520.978 81.9614 528.729 74.0028 538.533 74.8545V67.5868C527.849 69.0158 516.976 68.7319 506.282 67.5868V74.8545C508.071 74.6274 509.765 75.2615 511.317 76.0564C512.017 77.4285 511.657 78.848 510.824 80.0877L488.567 96.6672L488.586 96.6577ZM225.585 135.722V128.908C211.495 131 216.037 115.177 216.501 106.878C216.766 102.052 216.974 97.1971 216.964 92.352L218.781 65.7793L244.881 136.214L249.158 136.129L276.459 66.2336C277.491 73.6906 277.055 81.2516 277.358 88.737C277.69 97.1119 278.172 105.307 278.267 113.72C278.295 116.067 278.958 118.291 278.73 120.959C278.163 127.801 274.709 129.892 268.047 129.031L267.602 129.353L267.384 135.741C283.519 134.615 299.89 134.066 315.987 136.195V129.381C304.489 130.612 305.559 122.35 305.085 114.165C304.574 105.449 304.035 96.5536 303.713 87.8286C303.429 80.1823 302.691 72.2522 302.805 64.6627C302.899 58.7293 302.701 48.2819 311.454 50.7897L311.918 43.9762C308.322 43.5125 304.735 44.7332 301.262 44.9036C293.285 45.2916 285.345 44.5534 277.462 43.5882L257.41 95.3045L239.638 43.5409L220.797 44.8941L204.057 43.4746C203.309 43.6544 203.063 48.9727 203.527 49.9001C204.227 50.9032 208.41 49.2661 210.406 52.3132C213.453 56.9502 211.684 62.7227 211.485 67.795C211.002 80.1728 210.018 92.2857 209.233 104.607C208.883 110.228 209.715 119.492 207.283 124.461C204.851 129.429 198.871 128.18 198.066 129.325L197.868 135.258C207.255 134.747 216.226 134.236 225.576 135.712L225.585 135.722ZM440.892 136.63V129.817C434.665 130.905 427.217 128.586 426.347 121.423C425.334 113.161 427.028 102.752 426.47 94.2635C429.867 89.5982 430.671 84.5732 437.731 85.9548C441.686 86.7308 446.286 90.6391 449.872 91.5571C450.393 91.6895 450.904 91.822 451.377 91.4624L459.033 71.9588C458.786 71.2491 446.967 66.0065 445.415 65.5617C441.393 64.4072 439.633 64.8614 436.349 67.4827L426.356 84.3934V66.6783C422.457 64.2558 420.782 66.3282 417.054 67.5963C408.177 70.615 399.537 72.6875 390.216 73.9177L390.084 78.4316C393.869 80.0214 399.878 80.5135 400.474 85.529C401.307 92.475 401.175 115.083 399.802 121.678C398.932 125.889 396.945 130.545 391.834 129.826C393.661 128.198 390.519 126.126 389.27 124.877C385.759 126.845 382.759 128.927 382.277 123.259C381.207 110.616 385.172 84.63 379.211 74.5423C373.864 65.4954 360.682 64.2747 351.237 65.3819C335.245 67.2556 319.801 75.886 324.154 94.396L346.212 84.4124C344.244 80.3053 344.698 72.5266 350.301 71.7128C359.849 70.3217 356.083 84.4881 356.877 90.0146C349.316 93.6579 341.055 95.9669 333.39 99.3169C324.977 102.989 319.574 106.49 318.712 116.436C317.567 129.76 323.595 137.425 337.109 138.002C345.257 138.352 351.9 135.589 357.086 129.391C358.675 132.078 360.152 134.198 362.981 135.75C370.959 140.141 378.189 138.636 385.778 134.454C386.8 133.886 388.522 132.249 389.327 132.097C391.021 131.776 388.986 135.911 390.311 136.214C401.752 135.655 413.278 134.738 424.785 135.267C426.924 135.362 440.324 137.217 440.892 136.649V136.63ZM605.892 127.432C605.333 126.864 604.926 124.593 604.86 123.703C603.81 111.08 606.299 96.1183 604.841 83.7499C602.248 61.7386 570.49 63.1675 556.314 71.9399C547.466 77.4096 544.939 85.141 546.737 95.295L568.976 85.7277C567.433 81.2422 567.13 73.312 573.357 72.6118C577.436 72.1481 579.007 74.5801 579.442 78.2613C579.707 80.5135 579.858 88.4815 579.442 90.535C579.366 90.8946 579.366 91.2448 578.988 91.4435C570.14 95.5316 559.219 98.0488 550.806 102.78C537.539 110.256 537.35 133.857 552.983 137.87C562.777 140.378 573.329 138.599 579.66 130.28C587.344 143.936 606.403 140.491 615.099 129.807L612.582 125.738C612.081 125.388 607.718 129.287 605.892 127.432ZM491.311 115.281V122.776C491.311 123.155 492.523 126.845 492.769 126.997C495.03 126.949 499.27 129.334 497.784 125.388C496.791 122.748 494.008 118.764 492.447 116.171C492.097 115.594 492.542 115.026 491.321 115.272L491.311 115.281Z" fill="#CF752F"/>
<path d="M356.858 95.7493L356.66 123.486C355.723 127.631 349.07 127.82 346.458 125.454C345.058 124.177 344.5 122.199 344.272 120.372C343.071 110.994 345.749 97.2823 356.858 95.7493ZM354.133 99.8374C347.49 102.468 345.919 114.165 346.894 120.477C347.49 124.328 350.433 124.366 353.66 123.893L354.133 99.8374Z" fill="#CF752F"/>
<path d="M579.432 96.6577V125.729C579.432 125.729 578.903 125.653 578.704 125.899C576.224 128.899 569.629 128.577 567.84 124.83C563.989 116.71 568.304 97.623 579.432 96.6577ZM576.707 100.746C573.934 101.872 572.061 104.834 571.048 107.578C569.089 112.897 566.572 129.211 576.707 124.139V100.746Z" fill="#CF752F"/>
<path d="M105.691 8.96471C106.156 9.43932 106.649 10.1038 107.276 10.3126C114.727 11.6795 122.065 13.7013 128.928 16.9192C130.351 12.6382 134.167 12.2965 138.059 13.7108C152.753 19.055 166.298 32.4485 173.608 46.0509C192.953 82.074 189.963 134.357 158.439 162.701C152.867 167.713 138.932 176.683 131.652 177.708C128.443 178.164 123.033 176.721 122.302 173.209C121.97 173.067 121.647 173.228 121.315 173.275C120.451 173.399 115.401 174.842 115.04 175.221C114.347 175.933 113.873 179.161 112.316 180.698C108.662 184.315 95.2491 187.409 90.1802 186.887L89.0791 185.938L88.8038 186.887C82.482 185.644 74.4136 184.505 70.6546 178.62C69.9617 177.528 68.8511 174.111 68.5758 173.864C68.3765 173.693 64.1714 172.013 63.6873 171.899C63.3456 171.823 63.0134 171.738 62.6717 171.823C59.843 181.448 46.8386 175.307 41.0104 171.823C21.7601 160.3 4.0096 132.753 1.13345 110.541C-3.68861 73.2747 6.53454 40.0328 38.362 18.8082C43.4214 15.4384 55.3342 7.48392 58.1344 16.8623C58.5425 17.2135 66.5825 13.8627 68.0253 13.3976C70.7401 12.5243 79.3211 10.8442 80.6785 9.64815C84.4848 6.2784 86.2314 0.896301 92.5343 0.0894603C99.4731 -0.793318 101.837 5.0539 105.691 8.96471ZM106.127 15.7991C104.115 13.2362 101.989 10.1133 99.7958 7.77818C96.6349 4.41792 94.2998 2.62389 89.6486 5.40512C87.978 6.4018 80.4317 16.1788 78.8559 18.2956C56.8055 48.0443 44.1808 81.5234 38.1057 117.879C37.4698 121.685 37.5172 126.887 36.5775 130.475C36.4161 131.101 36.1314 131.899 35.4669 132.117C33.1223 132.706 32.7711 131.044 31.9643 129.383C17.9442 100.508 26.7056 65.0923 41.6179 38.4666C44.7029 32.9611 48.8415 27.6739 51.7936 22.2159C52.2777 21.3236 54.6222 17.0806 53.9958 16.4446C49.9995 16.0649 45.8609 18.6373 42.5481 20.7066C-4.10627 49.8193 -7.84621 115.183 27.1517 155.041C32.4958 161.125 46.8766 173.171 55.1348 173.171C59.207 173.171 59.2355 170.475 59.4823 167.049C59.8809 161.477 59.5297 155.383 59.9284 149.725C62.5767 111.842 71.414 74.0815 90.9775 41.3522C92.6767 39.2924 93.9391 40.1562 95.1067 42.1021C112.164 70.5029 120.812 116.92 124.172 149.725C124.865 156.531 124.732 163.964 125.586 170.637C126.374 176.807 136.521 172.041 139.901 170.456C194.538 144.979 195.373 49.4681 144.077 20.9249C142.558 20.0801 133.607 15.0113 132.838 17.6121C133.788 20.4313 136.199 22.8898 137.803 25.4338C156.379 54.9831 166.128 89.8576 154.576 124.533C153.588 127.504 151.329 136.816 147.884 131.035C145.681 88.3673 132.516 49.3067 106.146 15.8086L106.127 15.7991ZM93.1702 101.191C92.5722 100.783 90.8731 102.767 90.4555 103.251C76.0842 120.062 76.3405 141.125 74.4895 162.008C73.9295 168.32 70.4173 174.443 76.5493 179.104C83.08 184.068 95.9894 183.404 103.441 180.936C112.164 178.05 110.778 174.984 110.418 166.64C109.772 151.367 108.14 130.589 102.159 116.588C99.8053 111.092 96.5875 106.051 93.1702 101.191Z" fill="#CF752F"/>
</svg>
