<svg width="524" height="524" viewBox="0 0 524 524" fill="none" xmlns="http://www.w3.org/2000/svg">
<path d="M0.585205 0.585266H16.4034V16.4034H0.585205V0.585266Z" fill="black"/>
<path d="M16.4034 0.585266H32.2216V16.4034H16.4034V0.585266Z" fill="black"/>
<path d="M32.2216 0.585266H48.0398V16.4034H32.2216V0.585266Z" fill="black"/>
<path d="M48.0398 0.585266H63.8579V16.4034H48.0398V0.585266Z" fill="black"/>
<path d="M63.8579 0.585266H79.6761V16.4034H63.8579V0.585266Z" fill="black"/>
<path d="M79.6761 0.585266H95.4943V16.4034H79.6761V0.585266Z" fill="black"/>
<path d="M95.4943 0.585266H111.312V16.4034H95.4943V0.585266Z" fill="black"/>
<path d="M127.131 0.585266H142.949V16.4034H127.131V0.585266Z" fill="black"/>
<path d="M142.949 0.585266H158.767V16.4034H142.949V0.585266Z" fill="black"/>
<path d="M158.767 0.585266H174.585V16.4034H158.767V0.585266Z" fill="black"/>
<path d="M206.222 0.585266H222.04V16.4034H206.222V0.585266Z" fill="black"/>
<path d="M237.858 0.585266H253.676V16.4034H237.858V0.585266Z" fill="black"/>
<path d="M269.494 0.585266H285.312V16.4034H269.494V0.585266Z" fill="black"/>
<path d="M285.312 0.585266H301.131V16.4034H285.312V0.585266Z" fill="black"/>
<path d="M316.949 0.585266H332.767V16.4034H316.949V0.585266Z" fill="black"/>
<path d="M332.767 0.585266H348.585V16.4034H332.767V0.585266Z" fill="black"/>
<path d="M364.403 0.585266H380.222V16.4034H364.403V0.585266Z" fill="black"/>
<path d="M380.222 0.585266H396.04V16.4034H380.222V0.585266Z" fill="black"/>
<path d="M411.858 0.585266H427.676V16.4034H411.858V0.585266Z" fill="black"/>
<path d="M427.676 0.585266H443.494V16.4034H427.676V0.585266Z" fill="black"/>
<path d="M443.494 0.585266H459.312V16.4034H443.494V0.585266Z" fill="black"/>
<path d="M459.312 0.585266H475.131V16.4034H459.312V0.585266Z" fill="black"/>
<path d="M475.131 0.585266H490.949V16.4034H475.131V0.585266Z" fill="black"/>
<path d="M490.949 0.585266H506.767V16.4034H490.949V0.585266Z" fill="black"/>
<path d="M506.767 0.585266H522.585V16.4034H506.767V0.585266Z" fill="black"/>
<path d="M0.585205 16.4034H16.4034V32.2216H0.585205V16.4034Z" fill="black"/>
<path d="M95.4943 16.4034H111.312V32.2216H95.4943V16.4034Z" fill="black"/>
<path d="M127.131 16.4034H142.949V32.2216H127.131V16.4034Z" fill="black"/>
<path d="M142.949 16.4034H158.767V32.2216H142.949V16.4034Z" fill="black"/>
<path d="M158.767 16.4034H174.585V32.2216H158.767V16.4034Z" fill="black"/>
<path d="M174.585 16.4034H190.403V32.2216H174.585V16.4034Z" fill="black"/>
<path d="M190.403 16.4034H206.222V32.2216H190.403V16.4034Z" fill="black"/>
<path d="M269.494 16.4034H285.312V32.2216H269.494V16.4034Z" fill="black"/>
<path d="M332.767 16.4034H348.585V32.2216H332.767V16.4034Z" fill="black"/>
<path d="M380.222 16.4034H396.04V32.2216H380.222V16.4034Z" fill="black"/>
<path d="M411.858 16.4034H427.676V32.2216H411.858V16.4034Z" fill="black"/>
<path d="M506.767 16.4034H522.585V32.2216H506.767V16.4034Z" fill="black"/>
<path d="M0.585205 32.2216H16.4034V48.0398H0.585205V32.2216Z" fill="black"/>
<path d="M32.2216 32.2216H48.0398V48.0398H32.2216V32.2216Z" fill="black"/>
<path d="M48.0398 32.2216H63.8579V48.0398H48.0398V32.2216Z" fill="black"/>
<path d="M63.8579 32.2216H79.6761V48.0398H63.8579V32.2216Z" fill="black"/>
<path d="M95.4943 32.2216H111.312V48.0398H95.4943V32.2216Z" fill="black"/>
<path d="M127.131 32.2216H142.949V48.0398H127.131V32.2216Z" fill="black"/>
<path d="M158.767 32.2216H174.585V48.0398H158.767V32.2216Z" fill="black"/>
<path d="M206.222 32.2216H222.04V48.0398H206.222V32.2216Z" fill="black"/>
<path d="M222.04 32.2216H237.858V48.0398H222.04V32.2216Z" fill="black"/>
<path d="M237.858 32.2216H253.676V48.0398H237.858V32.2216Z" fill="black"/>
<path d="M253.676 32.2216H269.494V48.0398H253.676V32.2216Z" fill="black"/>
<path d="M332.767 32.2216H348.585V48.0398H332.767V32.2216Z" fill="black"/>
<path d="M348.585 32.2216H364.403V48.0398H348.585V32.2216Z" fill="black"/>
<path d="M364.403 32.2216H380.222V48.0398H364.403V32.2216Z" fill="black"/>
<path d="M380.222 32.2216H396.04V48.0398H380.222V32.2216Z" fill="black"/>
<path d="M411.858 32.2216H427.676V48.0398H411.858V32.2216Z" fill="black"/>
<path d="M443.494 32.2216H459.312V48.0398H443.494V32.2216Z" fill="black"/>
<path d="M459.312 32.2216H475.131V48.0398H459.312V32.2216Z" fill="black"/>
<path d="M475.131 32.2216H490.949V48.0398H475.131V32.2216Z" fill="black"/>
<path d="M506.767 32.2216H522.585V48.0398H506.767V32.2216Z" fill="black"/>
<path d="M0.585205 48.0398H16.4034V63.858H0.585205V48.0398Z" fill="black"/>
<path d="M32.2216 48.0398H48.0398V63.858H32.2216V48.0398Z" fill="black"/>
<path d="M48.0398 48.0398H63.8579V63.858H48.0398V48.0398Z" fill="black"/>
<path d="M63.8579 48.0398H79.6761V63.858H63.8579V48.0398Z" fill="black"/>
<path d="M95.4943 48.0398H111.312V63.858H95.4943V48.0398Z" fill="black"/>
<path d="M158.767 48.0398H174.585V63.858H158.767V48.0398Z" fill="black"/>
<path d="M253.676 48.0398H269.494V63.858H253.676V48.0398Z" fill="black"/>
<path d="M316.949 48.0398H332.767V63.858H316.949V48.0398Z" fill="black"/>
<path d="M348.585 48.0398H364.403V63.858H348.585V48.0398Z" fill="black"/>
<path d="M364.403 48.0398H380.222V63.858H364.403V48.0398Z" fill="black"/>
<path d="M380.222 48.0398H396.04V63.858H380.222V48.0398Z" fill="black"/>
<path d="M411.858 48.0398H427.676V63.858H411.858V48.0398Z" fill="black"/>
<path d="M443.494 48.0398H459.312V63.858H443.494V48.0398Z" fill="black"/>
<path d="M459.312 48.0398H475.131V63.858H459.312V48.0398Z" fill="black"/>
<path d="M475.131 48.0398H490.949V63.858H475.131V48.0398Z" fill="black"/>
<path d="M506.767 48.0398H522.585V63.858H506.767V48.0398Z" fill="black"/>
<path d="M0.585205 63.858H16.4034V79.6762H0.585205V63.858Z" fill="black"/>
<path d="M32.2216 63.858H48.0398V79.6762H32.2216V63.858Z" fill="black"/>
<path d="M48.0398 63.858H63.8579V79.6762H48.0398V63.858Z" fill="black"/>
<path d="M63.8579 63.858H79.6761V79.6762H63.8579V63.858Z" fill="black"/>
<path d="M95.4943 63.858H111.312V79.6762H95.4943V63.858Z" fill="black"/>
<path d="M142.949 63.858H158.767V79.6762H142.949V63.858Z" fill="black"/>
<path d="M174.585 63.858H190.403V79.6762H174.585V63.858Z" fill="black"/>
<path d="M206.222 63.858H222.04V79.6762H206.222V63.858Z" fill="black"/>
<path d="M222.04 63.858H237.858V79.6762H222.04V63.858Z" fill="black"/>
<path d="M253.676 63.858H269.494V79.6762H253.676V63.858Z" fill="black"/>
<path d="M301.131 63.858H316.949V79.6762H301.131V63.858Z" fill="black"/>
<path d="M316.949 63.858H332.767V79.6762H316.949V63.858Z" fill="black"/>
<path d="M348.585 63.858H364.403V79.6762H348.585V63.858Z" fill="black"/>
<path d="M411.858 63.858H427.676V79.6762H411.858V63.858Z" fill="black"/>
<path d="M443.494 63.858H459.312V79.6762H443.494V63.858Z" fill="black"/>
<path d="M459.312 63.858H475.131V79.6762H459.312V63.858Z" fill="black"/>
<path d="M475.131 63.858H490.949V79.6762H475.131V63.858Z" fill="black"/>
<path d="M506.767 63.858H522.585V79.6762H506.767V63.858Z" fill="black"/>
<path d="M0.585205 79.6762H16.4034V95.4944H0.585205V79.6762Z" fill="black"/>
<path d="M95.4943 79.6762H111.312V95.4944H95.4943V79.6762Z" fill="black"/>
<path d="M127.131 79.6762H142.949V95.4944H127.131V79.6762Z" fill="black"/>
<path d="M142.949 79.6762H158.767V95.4944H142.949V79.6762Z" fill="black"/>
<path d="M285.312 79.6762H301.131V95.4944H285.312V79.6762Z" fill="black"/>
<path d="M316.949 79.6762H332.767V95.4944H316.949V79.6762Z" fill="black"/>
<path d="M364.403 79.6762H380.222V95.4944H364.403V79.6762Z" fill="black"/>
<path d="M380.222 79.6762H396.04V95.4944H380.222V79.6762Z" fill="black"/>
<path d="M411.858 79.6762H427.676V95.4944H411.858V79.6762Z" fill="black"/>
<path d="M506.767 79.6762H522.585V95.4944H506.767V79.6762Z" fill="black"/>
<path d="M0.585205 95.4944H16.4034V111.313H0.585205V95.4944Z" fill="black"/>
<path d="M16.4034 95.4944H32.2216V111.313H16.4034V95.4944Z" fill="black"/>
<path d="M32.2216 95.4944H48.0398V111.313H32.2216V95.4944Z" fill="black"/>
<path d="M48.0398 95.4944H63.8579V111.313H48.0398V95.4944Z" fill="black"/>
<path d="M63.8579 95.4944H79.6761V111.313H63.8579V95.4944Z" fill="black"/>
<path d="M79.6761 95.4944H95.4943V111.313H79.6761V95.4944Z" fill="black"/>
<path d="M95.4943 95.4944H111.312V111.313H95.4943V95.4944Z" fill="black"/>
<path d="M127.131 95.4944H142.949V111.313H127.131V95.4944Z" fill="black"/>
<path d="M158.767 95.4944H174.585V111.313H158.767V95.4944Z" fill="black"/>
<path d="M190.403 95.4944H206.222V111.313H190.403V95.4944Z" fill="black"/>
<path d="M222.04 95.4944H237.858V111.313H222.04V95.4944Z" fill="black"/>
<path d="M253.676 95.4944H269.494V111.313H253.676V95.4944Z" fill="black"/>
<path d="M285.312 95.4944H301.131V111.313H285.312V95.4944Z" fill="black"/>
<path d="M316.949 95.4944H332.767V111.313H316.949V95.4944Z" fill="black"/>
<path d="M348.585 95.4944H364.403V111.313H348.585V95.4944Z" fill="black"/>
<path d="M380.222 95.4944H396.04V111.313H380.222V95.4944Z" fill="black"/>
<path d="M411.858 95.4944H427.676V111.313H411.858V95.4944Z" fill="black"/>
<path d="M427.676 95.4944H443.494V111.313H427.676V95.4944Z" fill="black"/>
<path d="M443.494 95.4944H459.312V111.313H443.494V95.4944Z" fill="black"/>
<path d="M459.312 95.4944H475.131V111.313H459.312V95.4944Z" fill="black"/>
<path d="M475.131 95.4944H490.949V111.313H475.131V95.4944Z" fill="black"/>
<path d="M490.949 95.4944H506.767V111.313H490.949V95.4944Z" fill="black"/>
<path d="M506.767 95.4944H522.585V111.313H506.767V95.4944Z" fill="black"/>
<path d="M127.131 111.313H142.949V127.131H127.131V111.313Z" fill="black"/>
<path d="M158.767 111.313H174.585V127.131H158.767V111.313Z" fill="black"/>
<path d="M206.222 111.313H222.04V127.131H206.222V111.313Z" fill="black"/>
<path d="M222.04 111.313H237.858V127.131H222.04V111.313Z" fill="black"/>
<path d="M285.312 111.313H301.131V127.131H285.312V111.313Z" fill="black"/>
<path d="M316.949 111.313H332.767V127.131H316.949V111.313Z" fill="black"/>
<path d="M332.767 111.313H348.585V127.131H332.767V111.313Z" fill="black"/>
<path d="M348.585 111.313H364.403V127.131H348.585V111.313Z" fill="black"/>
<path d="M364.403 111.313H380.222V127.131H364.403V111.313Z" fill="black"/>
<path d="M32.2216 127.131H48.0398V142.949H32.2216V127.131Z" fill="black"/>
<path d="M48.0398 127.131H63.8579V142.949H48.0398V127.131Z" fill="black"/>
<path d="M63.8579 127.131H79.6761V142.949H63.8579V127.131Z" fill="black"/>
<path d="M95.4943 127.131H111.312V142.949H95.4943V127.131Z" fill="black"/>
<path d="M127.131 127.131H142.949V142.949H127.131V127.131Z" fill="black"/>
<path d="M190.403 127.131H206.222V142.949H190.403V127.131Z" fill="black"/>
<path d="M222.04 127.131H237.858V142.949H222.04V127.131Z" fill="black"/>
<path d="M269.494 127.131H285.312V142.949H269.494V127.131Z" fill="black"/>
<path d="M301.131 127.131H316.949V142.949H301.131V127.131Z" fill="black"/>
<path d="M316.949 127.131H332.767V142.949H316.949V127.131Z" fill="black"/>
<path d="M348.585 127.131H364.403V142.949H348.585V127.131Z" fill="black"/>
<path d="M364.403 127.131H380.222V142.949H364.403V127.131Z" fill="black"/>
<path d="M380.222 127.131H396.04V142.949H380.222V127.131Z" fill="black"/>
<path d="M396.04 127.131H411.858V142.949H396.04V127.131Z" fill="black"/>
<path d="M411.858 127.131H427.676V142.949H411.858V127.131Z" fill="black"/>
<path d="M427.676 127.131H443.494V142.949H427.676V127.131Z" fill="black"/>
<path d="M475.131 127.131H490.949V142.949H475.131V127.131Z" fill="black"/>
<path d="M490.949 127.131H506.767V142.949H490.949V127.131Z" fill="black"/>
<path d="M506.767 127.131H522.585V142.949H506.767V127.131Z" fill="black"/>
<path d="M79.6761 142.949H95.4943V158.767H79.6761V142.949Z" fill="black"/>
<path d="M174.585 142.949H190.403V158.767H174.585V142.949Z" fill="black"/>
<path d="M190.403 142.949H206.222V158.767H190.403V142.949Z" fill="black"/>
<path d="M206.222 142.949H222.04V158.767H206.222V142.949Z" fill="black"/>
<path d="M222.04 142.949H237.858V158.767H222.04V142.949Z" fill="black"/>
<path d="M285.312 142.949H301.131V158.767H285.312V142.949Z" fill="black"/>
<path d="M301.131 142.949H316.949V158.767H301.131V142.949Z" fill="black"/>
<path d="M332.767 142.949H348.585V158.767H332.767V142.949Z" fill="black"/>
<path d="M364.403 142.949H380.222V158.767H364.403V142.949Z" fill="black"/>
<path d="M396.04 142.949H411.858V158.767H396.04V142.949Z" fill="black"/>
<path d="M411.858 142.949H427.676V158.767H411.858V142.949Z" fill="black"/>
<path d="M475.131 142.949H490.949V158.767H475.131V142.949Z" fill="black"/>
<path d="M490.949 142.949H506.767V158.767H490.949V142.949Z" fill="black"/>
<path d="M506.767 142.949H522.585V158.767H506.767V142.949Z" fill="black"/>
<path d="M0.585205 158.767H16.4034V174.585H0.585205V158.767Z" fill="black"/>
<path d="M16.4034 158.767H32.2216V174.585H16.4034V158.767Z" fill="black"/>
<path d="M32.2216 158.767H48.0398V174.585H32.2216V158.767Z" fill="black"/>
<path d="M79.6761 158.767H95.4943V174.585H79.6761V158.767Z" fill="black"/>
<path d="M95.4943 158.767H111.312V174.585H95.4943V158.767Z" fill="black"/>
<path d="M142.949 158.767H158.767V174.585H142.949V158.767Z" fill="black"/>
<path d="M158.767 158.767H174.585V174.585H158.767V158.767Z" fill="black"/>
<path d="M174.585 158.767H190.403V174.585H174.585V158.767Z" fill="black"/>
<path d="M222.04 158.767H237.858V174.585H222.04V158.767Z" fill="black"/>
<path d="M253.676 158.767H269.494V174.585H253.676V158.767Z" fill="black"/>
<path d="M269.494 158.767H285.312V174.585H269.494V158.767Z" fill="black"/>
<path d="M285.312 158.767H301.131V174.585H285.312V158.767Z" fill="black"/>
<path d="M301.131 158.767H316.949V174.585H301.131V158.767Z" fill="black"/>
<path d="M316.949 158.767H332.767V174.585H316.949V158.767Z" fill="black"/>
<path d="M332.767 158.767H348.585V174.585H332.767V158.767Z" fill="black"/>
<path d="M380.222 158.767H396.04V174.585H380.222V158.767Z" fill="black"/>
<path d="M427.676 158.767H443.494V174.585H427.676V158.767Z" fill="black"/>
<path d="M459.312 158.767H475.131V174.585H459.312V158.767Z" fill="black"/>
<path d="M475.131 158.767H490.949V174.585H475.131V158.767Z" fill="black"/>
<path d="M490.949 158.767H506.767V174.585H490.949V158.767Z" fill="black"/>
<path d="M16.4034 174.585H32.2216V190.403H16.4034V174.585Z" fill="black"/>
<path d="M32.2216 174.585H48.0398V190.403H32.2216V174.585Z" fill="black"/>
<path d="M63.8579 174.585H79.6761V190.403H63.8579V174.585Z" fill="black"/>
<path d="M111.312 174.585H127.131V190.403H111.312V174.585Z" fill="black"/>
<path d="M127.131 174.585H142.949V190.403H127.131V174.585Z" fill="black"/>
<path d="M142.949 174.585H158.767V190.403H142.949V174.585Z" fill="black"/>
<path d="M158.767 174.585H174.585V190.403H158.767V174.585Z" fill="black"/>
<path d="M190.403 174.585H206.222V190.403H190.403V174.585Z" fill="black"/>
<path d="M206.222 174.585H222.04V190.403H206.222V174.585Z" fill="black"/>
<path d="M222.04 174.585H237.858V190.403H222.04V174.585Z" fill="black"/>
<path d="M285.312 174.585H301.131V190.403H285.312V174.585Z" fill="black"/>
<path d="M316.949 174.585H332.767V190.403H316.949V174.585Z" fill="black"/>
<path d="M332.767 174.585H348.585V190.403H332.767V174.585Z" fill="black"/>
<path d="M348.585 174.585H364.403V190.403H348.585V174.585Z" fill="black"/>
<path d="M364.403 174.585H380.222V190.403H364.403V174.585Z" fill="black"/>
<path d="M396.04 174.585H411.858V190.403H396.04V174.585Z" fill="black"/>
<path d="M475.131 174.585H490.949V190.403H475.131V174.585Z" fill="black"/>
<path d="M490.949 174.585H506.767V190.403H490.949V174.585Z" fill="black"/>
<path d="M506.767 174.585H522.585V190.403H506.767V174.585Z" fill="black"/>
<path d="M16.4034 190.403H32.2216V206.222H16.4034V190.403Z" fill="black"/>
<path d="M48.0398 190.403H63.8579V206.222H48.0398V190.403Z" fill="black"/>
<path d="M63.8579 190.403H79.6761V206.222H63.8579V190.403Z" fill="black"/>
<path d="M95.4943 190.403H111.312V206.222H95.4943V190.403Z" fill="black"/>
<path d="M174.585 190.403H190.403V206.222H174.585V190.403Z" fill="black"/>
<path d="M332.767 190.403H348.585V206.222H332.767V190.403Z" fill="black"/>
<path d="M364.403 190.403H380.222V206.222H364.403V190.403Z" fill="black"/>
<path d="M380.222 190.403H396.04V206.222H380.222V190.403Z" fill="black"/>
<path d="M427.676 190.403H443.494V206.222H427.676V190.403Z" fill="black"/>
<path d="M443.494 190.403H459.312V206.222H443.494V190.403Z" fill="black"/>
<path d="M79.6761 206.222H95.4943V222.04H79.6761V206.222Z" fill="black"/>
<path d="M127.131 206.222H142.949V222.04H127.131V206.222Z" fill="black"/>
<path d="M142.949 206.222H158.767V222.04H142.949V206.222Z" fill="black"/>
<path d="M158.767 206.222H174.585V222.04H158.767V206.222Z" fill="black"/>
<path d="M348.585 206.222H364.403V222.04H348.585V206.222Z" fill="black"/>
<path d="M364.403 206.222H380.222V222.04H364.403V206.222Z" fill="black"/>
<path d="M411.858 206.222H427.676V222.04H411.858V206.222Z" fill="black"/>
<path d="M459.312 206.222H475.131V222.04H459.312V206.222Z" fill="black"/>
<path d="M506.767 206.222H522.585V222.04H506.767V206.222Z" fill="black"/>
<path d="M0.585205 222.04H16.4034V237.858H0.585205V222.04Z" fill="black"/>
<path d="M32.2216 222.04H48.0398V237.858H32.2216V222.04Z" fill="black"/>
<path d="M48.0398 222.04H63.8579V237.858H48.0398V222.04Z" fill="black"/>
<path d="M63.8579 222.04H79.6761V237.858H63.8579V222.04Z" fill="black"/>
<path d="M79.6761 222.04H95.4943V237.858H79.6761V222.04Z" fill="black"/>
<path d="M95.4943 222.04H111.312V237.858H95.4943V222.04Z" fill="black"/>
<path d="M127.131 222.04H142.949V237.858H127.131V222.04Z" fill="black"/>
<path d="M174.585 222.04H190.403V237.858H174.585V222.04Z" fill="black"/>
<path d="M348.585 222.04H364.403V237.858H348.585V222.04Z" fill="black"/>
<path d="M443.494 222.04H459.312V237.858H443.494V222.04Z" fill="black"/>
<path d="M490.949 222.04H506.767V237.858H490.949V222.04Z" fill="black"/>
<path d="M0.585205 237.858H16.4034V253.676H0.585205V237.858Z" fill="black"/>
<path d="M16.4034 237.858H32.2216V253.676H16.4034V237.858Z" fill="black"/>
<path d="M32.2216 237.858H48.0398V253.676H32.2216V237.858Z" fill="black"/>
<path d="M111.312 237.858H127.131V253.676H111.312V237.858Z" fill="black"/>
<path d="M142.949 237.858H158.767V253.676H142.949V237.858Z" fill="black"/>
<path d="M158.767 237.858H174.585V253.676H158.767V237.858Z" fill="black"/>
<path d="M174.585 237.858H190.403V253.676H174.585V237.858Z" fill="black"/>
<path d="M332.767 237.858H348.585V253.676H332.767V237.858Z" fill="black"/>
<path d="M348.585 237.858H364.403V253.676H348.585V237.858Z" fill="black"/>
<path d="M411.858 237.858H427.676V253.676H411.858V237.858Z" fill="black"/>
<path d="M443.494 237.858H459.312V253.676H443.494V237.858Z" fill="black"/>
<path d="M459.312 237.858H475.131V253.676H459.312V237.858Z" fill="black"/>
<path d="M475.131 237.858H490.949V253.676H475.131V237.858Z" fill="black"/>
<path d="M490.949 237.858H506.767V253.676H490.949V237.858Z" fill="black"/>
<path d="M506.767 237.858H522.585V253.676H506.767V237.858Z" fill="black"/>
<path d="M0.585205 253.676H16.4034V269.494H0.585205V253.676Z" fill="black"/>
<path d="M16.4034 253.676H32.2216V269.494H16.4034V253.676Z" fill="black"/>
<path d="M32.2216 253.676H48.0398V269.494H32.2216V253.676Z" fill="black"/>
<path d="M63.8579 253.676H79.6761V269.494H63.8579V253.676Z" fill="black"/>
<path d="M79.6761 253.676H95.4943V269.494H79.6761V253.676Z" fill="black"/>
<path d="M95.4943 253.676H111.312V269.494H95.4943V253.676Z" fill="black"/>
<path d="M364.403 253.676H380.222V269.494H364.403V253.676Z" fill="black"/>
<path d="M396.04 253.676H411.858V269.494H396.04V253.676Z" fill="black"/>
<path d="M443.494 253.676H459.312V269.494H443.494V253.676Z" fill="black"/>
<path d="M490.949 253.676H506.767V269.494H490.949V253.676Z" fill="black"/>
<path d="M506.767 253.676H522.585V269.494H506.767V253.676Z" fill="black"/>
<path d="M32.2216 269.494H48.0398V285.313H32.2216V269.494Z" fill="black"/>
<path d="M111.312 269.494H127.131V285.313H111.312V269.494Z" fill="black"/>
<path d="M142.949 269.494H158.767V285.313H142.949V269.494Z" fill="black"/>
<path d="M332.767 269.494H348.585V285.313H332.767V269.494Z" fill="black"/>
<path d="M364.403 269.494H380.222V285.313H364.403V269.494Z" fill="black"/>
<path d="M380.222 269.494H396.04V285.313H380.222V269.494Z" fill="black"/>
<path d="M411.858 269.494H427.676V285.313H411.858V269.494Z" fill="black"/>
<path d="M506.767 269.494H522.585V285.313H506.767V269.494Z" fill="black"/>
<path d="M0.585205 285.313H16.4034V301.131H0.585205V285.313Z" fill="black"/>
<path d="M16.4034 285.313H32.2216V301.131H16.4034V285.313Z" fill="black"/>
<path d="M32.2216 285.313H48.0398V301.131H32.2216V285.313Z" fill="black"/>
<path d="M79.6761 285.313H95.4943V301.131H79.6761V285.313Z" fill="black"/>
<path d="M95.4943 285.313H111.312V301.131H95.4943V285.313Z" fill="black"/>
<path d="M111.312 285.313H127.131V301.131H111.312V285.313Z" fill="black"/>
<path d="M142.949 285.313H158.767V301.131H142.949V285.313Z" fill="black"/>
<path d="M174.585 285.313H190.403V301.131H174.585V285.313Z" fill="black"/>
<path d="M396.04 285.313H411.858V301.131H396.04V285.313Z" fill="black"/>
<path d="M411.858 285.313H427.676V301.131H411.858V285.313Z" fill="black"/>
<path d="M427.676 285.313H443.494V301.131H427.676V285.313Z" fill="black"/>
<path d="M443.494 285.313H459.312V301.131H443.494V285.313Z" fill="black"/>
<path d="M475.131 285.313H490.949V301.131H475.131V285.313Z" fill="black"/>
<path d="M0.585205 301.131H16.4034V316.949H0.585205V301.131Z" fill="black"/>
<path d="M16.4034 301.131H32.2216V316.949H16.4034V301.131Z" fill="black"/>
<path d="M48.0398 301.131H63.8579V316.949H48.0398V301.131Z" fill="black"/>
<path d="M79.6761 301.131H95.4943V316.949H79.6761V301.131Z" fill="black"/>
<path d="M111.312 301.131H127.131V316.949H111.312V301.131Z" fill="black"/>
<path d="M127.131 301.131H142.949V316.949H127.131V301.131Z" fill="black"/>
<path d="M142.949 301.131H158.767V316.949H142.949V301.131Z" fill="black"/>
<path d="M158.767 301.131H174.585V316.949H158.767V301.131Z" fill="black"/>
<path d="M174.585 301.131H190.403V316.949H174.585V301.131Z" fill="black"/>
<path d="M332.767 301.131H348.585V316.949H332.767V301.131Z" fill="black"/>
<path d="M364.403 301.131H380.222V316.949H364.403V301.131Z" fill="black"/>
<path d="M380.222 301.131H396.04V316.949H380.222V301.131Z" fill="black"/>
<path d="M396.04 301.131H411.858V316.949H396.04V301.131Z" fill="black"/>
<path d="M459.312 301.131H475.131V316.949H459.312V301.131Z" fill="black"/>
<path d="M475.131 301.131H490.949V316.949H475.131V301.131Z" fill="black"/>
<path d="M32.2216 316.949H48.0398V332.767H32.2216V316.949Z" fill="black"/>
<path d="M48.0398 316.949H63.8579V332.767H48.0398V316.949Z" fill="black"/>
<path d="M63.8579 316.949H79.6761V332.767H63.8579V316.949Z" fill="black"/>
<path d="M79.6761 316.949H95.4943V332.767H79.6761V316.949Z" fill="black"/>
<path d="M95.4943 316.949H111.312V332.767H95.4943V316.949Z" fill="black"/>
<path d="M111.312 316.949H127.131V332.767H111.312V316.949Z" fill="black"/>
<path d="M348.585 316.949H364.403V332.767H348.585V316.949Z" fill="black"/>
<path d="M380.222 316.949H396.04V332.767H380.222V316.949Z" fill="black"/>
<path d="M427.676 316.949H443.494V332.767H427.676V316.949Z" fill="black"/>
<path d="M443.494 316.949H459.312V332.767H443.494V316.949Z" fill="black"/>
<path d="M459.312 316.949H475.131V332.767H459.312V316.949Z" fill="black"/>
<path d="M0.585205 332.767H16.4034V348.585H0.585205V332.767Z" fill="black"/>
<path d="M79.6761 332.767H95.4943V348.585H79.6761V332.767Z" fill="black"/>
<path d="M142.949 332.767H158.767V348.585H142.949V332.767Z" fill="black"/>
<path d="M158.767 332.767H174.585V348.585H158.767V332.767Z" fill="black"/>
<path d="M190.403 332.767H206.222V348.585H190.403V332.767Z" fill="black"/>
<path d="M222.04 332.767H237.858V348.585H222.04V332.767Z" fill="black"/>
<path d="M253.676 332.767H269.494V348.585H253.676V332.767Z" fill="black"/>
<path d="M269.494 332.767H285.312V348.585H269.494V332.767Z" fill="black"/>
<path d="M301.131 332.767H316.949V348.585H301.131V332.767Z" fill="black"/>
<path d="M332.767 332.767H348.585V348.585H332.767V332.767Z" fill="black"/>
<path d="M380.222 332.767H396.04V348.585H380.222V332.767Z" fill="black"/>
<path d="M411.858 332.767H427.676V348.585H411.858V332.767Z" fill="black"/>
<path d="M459.312 332.767H475.131V348.585H459.312V332.767Z" fill="black"/>
<path d="M475.131 332.767H490.949V348.585H475.131V332.767Z" fill="black"/>
<path d="M506.767 332.767H522.585V348.585H506.767V332.767Z" fill="black"/>
<path d="M0.585205 348.585H16.4034V364.403H0.585205V348.585Z" fill="black"/>
<path d="M79.6761 348.585H95.4943V364.403H79.6761V348.585Z" fill="black"/>
<path d="M95.4943 348.585H111.312V364.403H95.4943V348.585Z" fill="black"/>
<path d="M190.403 348.585H206.222V364.403H190.403V348.585Z" fill="black"/>
<path d="M206.222 348.585H222.04V364.403H206.222V348.585Z" fill="black"/>
<path d="M222.04 348.585H237.858V364.403H222.04V348.585Z" fill="black"/>
<path d="M237.858 348.585H253.676V364.403H237.858V348.585Z" fill="black"/>
<path d="M301.131 348.585H316.949V364.403H301.131V348.585Z" fill="black"/>
<path d="M348.585 348.585H364.403V364.403H348.585V348.585Z" fill="black"/>
<path d="M459.312 348.585H475.131V364.403H459.312V348.585Z" fill="black"/>
<path d="M475.131 348.585H490.949V364.403H475.131V348.585Z" fill="black"/>
<path d="M490.949 348.585H506.767V364.403H490.949V348.585Z" fill="black"/>
<path d="M0.585205 364.403H16.4034V380.222H0.585205V364.403Z" fill="black"/>
<path d="M32.2216 364.403H48.0398V380.222H32.2216V364.403Z" fill="black"/>
<path d="M48.0398 364.403H63.8579V380.222H48.0398V364.403Z" fill="black"/>
<path d="M63.8579 364.403H79.6761V380.222H63.8579V364.403Z" fill="black"/>
<path d="M79.6761 364.403H95.4943V380.222H79.6761V364.403Z" fill="black"/>
<path d="M206.222 364.403H222.04V380.222H206.222V364.403Z" fill="black"/>
<path d="M253.676 364.403H269.494V380.222H253.676V364.403Z" fill="black"/>
<path d="M269.494 364.403H285.312V380.222H269.494V364.403Z" fill="black"/>
<path d="M332.767 364.403H348.585V380.222H332.767V364.403Z" fill="black"/>
<path d="M348.585 364.403H364.403V380.222H348.585V364.403Z" fill="black"/>
<path d="M364.403 364.403H380.222V380.222H364.403V364.403Z" fill="black"/>
<path d="M443.494 364.403H459.312V380.222H443.494V364.403Z" fill="black"/>
<path d="M459.312 364.403H475.131V380.222H459.312V364.403Z" fill="black"/>
<path d="M475.131 364.403H490.949V380.222H475.131V364.403Z" fill="black"/>
<path d="M490.949 364.403H506.767V380.222H490.949V364.403Z" fill="black"/>
<path d="M506.767 364.403H522.585V380.222H506.767V364.403Z" fill="black"/>
<path d="M0.585205 380.222H16.4034V396.04H0.585205V380.222Z" fill="black"/>
<path d="M95.4943 380.222H111.312V396.04H95.4943V380.222Z" fill="black"/>
<path d="M111.312 380.222H127.131V396.04H111.312V380.222Z" fill="black"/>
<path d="M142.949 380.222H158.767V396.04H142.949V380.222Z" fill="black"/>
<path d="M206.222 380.222H222.04V396.04H206.222V380.222Z" fill="black"/>
<path d="M285.312 380.222H301.131V396.04H285.312V380.222Z" fill="black"/>
<path d="M301.131 380.222H316.949V396.04H301.131V380.222Z" fill="black"/>
<path d="M348.585 380.222H364.403V396.04H348.585V380.222Z" fill="black"/>
<path d="M364.403 380.222H380.222V396.04H364.403V380.222Z" fill="black"/>
<path d="M380.222 380.222H396.04V396.04H380.222V380.222Z" fill="black"/>
<path d="M396.04 380.222H411.858V396.04H396.04V380.222Z" fill="black"/>
<path d="M411.858 380.222H427.676V396.04H411.858V380.222Z" fill="black"/>
<path d="M427.676 380.222H443.494V396.04H427.676V380.222Z" fill="black"/>
<path d="M443.494 380.222H459.312V396.04H443.494V380.222Z" fill="black"/>
<path d="M506.767 380.222H522.585V396.04H506.767V380.222Z" fill="black"/>
<path d="M127.131 396.04H142.949V411.858H127.131V396.04Z" fill="black"/>
<path d="M142.949 396.04H158.767V411.858H142.949V396.04Z" fill="black"/>
<path d="M174.585 396.04H190.403V411.858H174.585V396.04Z" fill="black"/>
<path d="M206.222 396.04H222.04V411.858H206.222V396.04Z" fill="black"/>
<path d="M237.858 396.04H253.676V411.858H237.858V396.04Z" fill="black"/>
<path d="M269.494 396.04H285.312V411.858H269.494V396.04Z" fill="black"/>
<path d="M285.312 396.04H301.131V411.858H285.312V396.04Z" fill="black"/>
<path d="M301.131 396.04H316.949V411.858H301.131V396.04Z" fill="black"/>
<path d="M348.585 396.04H364.403V411.858H348.585V396.04Z" fill="black"/>
<path d="M380.222 396.04H396.04V411.858H380.222V396.04Z" fill="black"/>
<path d="M443.494 396.04H459.312V411.858H443.494V396.04Z" fill="black"/>
<path d="M459.312 396.04H475.131V411.858H459.312V396.04Z" fill="black"/>
<path d="M490.949 396.04H506.767V411.858H490.949V396.04Z" fill="black"/>
<path d="M506.767 396.04H522.585V411.858H506.767V396.04Z" fill="black"/>
<path d="M0.585205 411.858H16.4034V427.676H0.585205V411.858Z" fill="black"/>
<path d="M16.4034 411.858H32.2216V427.676H16.4034V411.858Z" fill="black"/>
<path d="M32.2216 411.858H48.0398V427.676H32.2216V411.858Z" fill="black"/>
<path d="M48.0398 411.858H63.8579V427.676H48.0398V411.858Z" fill="black"/>
<path d="M63.8579 411.858H79.6761V427.676H63.8579V411.858Z" fill="black"/>
<path d="M79.6761 411.858H95.4943V427.676H79.6761V411.858Z" fill="black"/>
<path d="M95.4943 411.858H111.312V427.676H95.4943V411.858Z" fill="black"/>
<path d="M174.585 411.858H190.403V427.676H174.585V411.858Z" fill="black"/>
<path d="M237.858 411.858H253.676V427.676H237.858V411.858Z" fill="black"/>
<path d="M253.676 411.858H269.494V427.676H253.676V411.858Z" fill="black"/>
<path d="M301.131 411.858H316.949V427.676H301.131V411.858Z" fill="black"/>
<path d="M316.949 411.858H332.767V427.676H316.949V411.858Z" fill="black"/>
<path d="M348.585 411.858H364.403V427.676H348.585V411.858Z" fill="black"/>
<path d="M364.403 411.858H380.222V427.676H364.403V411.858Z" fill="black"/>
<path d="M380.222 411.858H396.04V427.676H380.222V411.858Z" fill="black"/>
<path d="M411.858 411.858H427.676V427.676H411.858V411.858Z" fill="black"/>
<path d="M443.494 411.858H459.312V427.676H443.494V411.858Z" fill="black"/>
<path d="M490.949 411.858H506.767V427.676H490.949V411.858Z" fill="black"/>
<path d="M0.585205 427.676H16.4034V443.494H0.585205V427.676Z" fill="black"/>
<path d="M95.4943 427.676H111.312V443.494H95.4943V427.676Z" fill="black"/>
<path d="M174.585 427.676H190.403V443.494H174.585V427.676Z" fill="black"/>
<path d="M253.676 427.676H269.494V443.494H253.676V427.676Z" fill="black"/>
<path d="M269.494 427.676H285.312V443.494H269.494V427.676Z" fill="black"/>
<path d="M285.312 427.676H301.131V443.494H285.312V427.676Z" fill="black"/>
<path d="M316.949 427.676H332.767V443.494H316.949V427.676Z" fill="black"/>
<path d="M364.403 427.676H380.222V443.494H364.403V427.676Z" fill="black"/>
<path d="M380.222 427.676H396.04V443.494H380.222V427.676Z" fill="black"/>
<path d="M443.494 427.676H459.312V443.494H443.494V427.676Z" fill="black"/>
<path d="M459.312 427.676H475.131V443.494H459.312V427.676Z" fill="black"/>
<path d="M475.131 427.676H490.949V443.494H475.131V427.676Z" fill="black"/>
<path d="M490.949 427.676H506.767V443.494H490.949V427.676Z" fill="black"/>
<path d="M506.767 427.676H522.585V443.494H506.767V427.676Z" fill="black"/>
<path d="M0.585205 443.494H16.4034V459.313H0.585205V443.494Z" fill="black"/>
<path d="M32.2216 443.494H48.0398V459.313H32.2216V443.494Z" fill="black"/>
<path d="M48.0398 443.494H63.8579V459.313H48.0398V443.494Z" fill="black"/>
<path d="M63.8579 443.494H79.6761V459.313H63.8579V443.494Z" fill="black"/>
<path d="M95.4943 443.494H111.312V459.313H95.4943V443.494Z" fill="black"/>
<path d="M127.131 443.494H142.949V459.313H127.131V443.494Z" fill="black"/>
<path d="M174.585 443.494H190.403V459.313H174.585V443.494Z" fill="black"/>
<path d="M222.04 443.494H237.858V459.313H222.04V443.494Z" fill="black"/>
<path d="M237.858 443.494H253.676V459.313H237.858V443.494Z" fill="black"/>
<path d="M253.676 443.494H269.494V459.313H253.676V443.494Z" fill="black"/>
<path d="M269.494 443.494H285.312V459.313H269.494V443.494Z" fill="black"/>
<path d="M316.949 443.494H332.767V459.313H316.949V443.494Z" fill="black"/>
<path d="M332.767 443.494H348.585V459.313H332.767V443.494Z" fill="black"/>
<path d="M348.585 443.494H364.403V459.313H348.585V443.494Z" fill="black"/>
<path d="M380.222 443.494H396.04V459.313H380.222V443.494Z" fill="black"/>
<path d="M396.04 443.494H411.858V459.313H396.04V443.494Z" fill="black"/>
<path d="M411.858 443.494H427.676V459.313H411.858V443.494Z" fill="black"/>
<path d="M427.676 443.494H443.494V459.313H427.676V443.494Z" fill="black"/>
<path d="M443.494 443.494H459.312V459.313H443.494V443.494Z" fill="black"/>
<path d="M490.949 443.494H506.767V459.313H490.949V443.494Z" fill="black"/>
<path d="M506.767 443.494H522.585V459.313H506.767V443.494Z" fill="black"/>
<path d="M0.585205 459.313H16.4034V475.131H0.585205V459.313Z" fill="black"/>
<path d="M32.2216 459.313H48.0398V475.131H32.2216V459.313Z" fill="black"/>
<path d="M48.0398 459.313H63.8579V475.131H48.0398V459.313Z" fill="black"/>
<path d="M63.8579 459.313H79.6761V475.131H63.8579V459.313Z" fill="black"/>
<path d="M95.4943 459.313H111.312V475.131H95.4943V459.313Z" fill="black"/>
<path d="M127.131 459.313H142.949V475.131H127.131V459.313Z" fill="black"/>
<path d="M174.585 459.313H190.403V475.131H174.585V459.313Z" fill="black"/>
<path d="M190.403 459.313H206.222V475.131H190.403V459.313Z" fill="black"/>
<path d="M206.222 459.313H222.04V475.131H206.222V459.313Z" fill="black"/>
<path d="M237.858 459.313H253.676V475.131H237.858V459.313Z" fill="black"/>
<path d="M253.676 459.313H269.494V475.131H253.676V459.313Z" fill="black"/>
<path d="M301.131 459.313H316.949V475.131H301.131V459.313Z" fill="black"/>
<path d="M364.403 459.313H380.222V475.131H364.403V459.313Z" fill="black"/>
<path d="M380.222 459.313H396.04V475.131H380.222V459.313Z" fill="black"/>
<path d="M396.04 459.313H411.858V475.131H396.04V459.313Z" fill="black"/>
<path d="M443.494 459.313H459.312V475.131H443.494V459.313Z" fill="black"/>
<path d="M475.131 459.313H490.949V475.131H475.131V459.313Z" fill="black"/>
<path d="M490.949 459.313H506.767V475.131H490.949V459.313Z" fill="black"/>
<path d="M0.585205 475.131H16.4034V490.949H0.585205V475.131Z" fill="black"/>
<path d="M32.2216 475.131H48.0398V490.949H32.2216V475.131Z" fill="black"/>
<path d="M48.0398 475.131H63.8579V490.949H48.0398V475.131Z" fill="black"/>
<path d="M63.8579 475.131H79.6761V490.949H63.8579V475.131Z" fill="black"/>
<path d="M95.4943 475.131H111.312V490.949H95.4943V475.131Z" fill="black"/>
<path d="M127.131 475.131H142.949V490.949H127.131V475.131Z" fill="black"/>
<path d="M158.767 475.131H174.585V490.949H158.767V475.131Z" fill="black"/>
<path d="M174.585 475.131H190.403V490.949H174.585V475.131Z" fill="black"/>
<path d="M190.403 475.131H206.222V490.949H190.403V475.131Z" fill="black"/>
<path d="M222.04 475.131H237.858V490.949H222.04V475.131Z" fill="black"/>
<path d="M237.858 475.131H253.676V490.949H237.858V475.131Z" fill="black"/>
<path d="M253.676 475.131H269.494V490.949H253.676V475.131Z" fill="black"/>
<path d="M269.494 475.131H285.312V490.949H269.494V475.131Z" fill="black"/>
<path d="M285.312 475.131H301.131V490.949H285.312V475.131Z" fill="black"/>
<path d="M301.131 475.131H316.949V490.949H301.131V475.131Z" fill="black"/>
<path d="M332.767 475.131H348.585V490.949H332.767V475.131Z" fill="black"/>
<path d="M380.222 475.131H396.04V490.949H380.222V475.131Z" fill="black"/>
<path d="M396.04 475.131H411.858V490.949H396.04V475.131Z" fill="black"/>
<path d="M411.858 475.131H427.676V490.949H411.858V475.131Z" fill="black"/>
<path d="M459.312 475.131H475.131V490.949H459.312V475.131Z" fill="black"/>
<path d="M0.585205 490.949H16.4034V506.767H0.585205V490.949Z" fill="black"/>
<path d="M95.4943 490.949H111.312V506.767H95.4943V490.949Z" fill="black"/>
<path d="M142.949 490.949H158.767V506.767H142.949V490.949Z" fill="black"/>
<path d="M174.585 490.949H190.403V506.767H174.585V490.949Z" fill="black"/>
<path d="M206.222 490.949H222.04V506.767H206.222V490.949Z" fill="black"/>
<path d="M222.04 490.949H237.858V506.767H222.04V490.949Z" fill="black"/>
<path d="M253.676 490.949H269.494V506.767H253.676V490.949Z" fill="black"/>
<path d="M269.494 490.949H285.312V506.767H269.494V490.949Z" fill="black"/>
<path d="M285.312 490.949H301.131V506.767H285.312V490.949Z" fill="black"/>
<path d="M316.949 490.949H332.767V506.767H316.949V490.949Z" fill="black"/>
<path d="M348.585 490.949H364.403V506.767H348.585V490.949Z" fill="black"/>
<path d="M396.04 490.949H411.858V506.767H396.04V490.949Z" fill="black"/>
<path d="M411.858 490.949H427.676V506.767H411.858V490.949Z" fill="black"/>
<path d="M427.676 490.949H443.494V506.767H427.676V490.949Z" fill="black"/>
<path d="M459.312 490.949H475.131V506.767H459.312V490.949Z" fill="black"/>
<path d="M475.131 490.949H490.949V506.767H475.131V490.949Z" fill="black"/>
<path d="M0.585205 506.767H16.4034V522.585H0.585205V506.767Z" fill="black"/>
<path d="M16.4034 506.767H32.2216V522.585H16.4034V506.767Z" fill="black"/>
<path d="M32.2216 506.767H48.0398V522.585H32.2216V506.767Z" fill="black"/>
<path d="M48.0398 506.767H63.8579V522.585H48.0398V506.767Z" fill="black"/>
<path d="M63.8579 506.767H79.6761V522.585H63.8579V506.767Z" fill="black"/>
<path d="M79.6761 506.767H95.4943V522.585H79.6761V506.767Z" fill="black"/>
<path d="M95.4943 506.767H111.312V522.585H95.4943V506.767Z" fill="black"/>
<path d="M158.767 506.767H174.585V522.585H158.767V506.767Z" fill="black"/>
<path d="M190.403 506.767H206.222V522.585H190.403V506.767Z" fill="black"/>
<path d="M222.04 506.767H237.858V522.585H222.04V506.767Z" fill="black"/>
<path d="M269.494 506.767H285.312V522.585H269.494V506.767Z" fill="black"/>
<path d="M301.131 506.767H316.949V522.585H301.131V506.767Z" fill="black"/>
<path d="M316.949 506.767H332.767V522.585H316.949V506.767Z" fill="black"/>
<path d="M364.403 506.767H380.222V522.585H364.403V506.767Z" fill="black"/>
<path d="M380.222 506.767H396.04V522.585H380.222V506.767Z" fill="black"/>
<path d="M396.04 506.767H411.858V522.585H396.04V506.767Z" fill="black"/>
<path d="M490.949 506.767H506.767V522.585H490.949V506.767Z" fill="black"/>
<path d="M301.131 190.403H316.949V206.222H301.131V190.403Z" fill="black"/>
<path d="M222.267 190.403H238.085V206.222H222.267V190.403Z" fill="black"/>
<path d="M316.949 206.222L332.767 206.222V222.04H316.949V206.222Z" fill="black"/>
<path d="M206.222 316.949H222.04V332.767H206.222V316.949Z" fill="black"/>
<path d="M190.403 206.222H206.222V222.04L190.403 222.04V206.222Z" fill="black"/>
<path d="M16.4034 0.585266H0.585205V16.4034M16.4034 0.585266V16.4034M16.4034 0.585266H32.2216M16.4034 16.4034H0.585205M16.4034 16.4034H32.2216M16.4034 16.4034V32.2216M0.585205 16.4034V32.2216M32.2216 0.585266V16.4034M32.2216 0.585266H48.0398M32.2216 16.4034H48.0398M48.0398 0.585266V16.4034M48.0398 0.585266H63.8579M48.0398 16.4034H63.8579M63.8579 0.585266V16.4034M63.8579 0.585266H79.6761M63.8579 16.4034H79.6761M79.6761 0.585266V16.4034M79.6761 0.585266H95.4943M79.6761 16.4034H95.4943M95.4943 0.585266V16.4034M95.4943 0.585266H111.312V16.4034M95.4943 16.4034H111.312M95.4943 16.4034V32.2216M111.312 16.4034V32.2216M142.949 0.585266H127.131V16.4034M142.949 0.585266V16.4034M142.949 0.585266H158.767M142.949 16.4034H127.131M142.949 16.4034H158.767M142.949 16.4034V32.2216M127.131 16.4034V32.2216M158.767 0.585266V16.4034M158.767 0.585266H174.585V16.4034M158.767 16.4034H174.585M158.767 16.4034V32.2216M174.585 16.4034V32.2216M174.585 16.4034H190.403M206.222 16.4034H222.04V0.585266H206.222V16.4034ZM206.222 16.4034H190.403M206.222 16.4034V32.2216M285.312 0.585266H269.494V16.4034M285.312 0.585266V16.4034M285.312 0.585266H301.131V16.4034H285.312M285.312 16.4034H269.494M285.312 16.4034V32.2216H269.494M269.494 16.4034V32.2216M332.767 0.585266H316.949V16.4034H332.767M332.767 0.585266V16.4034M332.767 0.585266H348.585V16.4034M332.767 16.4034H348.585M332.767 16.4034V32.2216M348.585 16.4034V32.2216M380.222 0.585266H364.403V16.4034H380.222M380.222 0.585266V16.4034M380.222 0.585266H396.04V16.4034M380.222 16.4034H396.04M380.222 16.4034V32.2216M396.04 16.4034V32.2216M427.676 0.585266H411.858V16.4034M427.676 0.585266V16.4034M427.676 0.585266H443.494M427.676 16.4034H411.858M427.676 16.4034H443.494M427.676 16.4034V32.2216M411.858 16.4034V32.2216M443.494 0.585266V16.4034M443.494 0.585266H459.312M443.494 16.4034H459.312M459.312 0.585266V16.4034M459.312 0.585266H475.131M459.312 16.4034H475.131M475.131 0.585266V16.4034M475.131 0.585266H490.949M475.131 16.4034H490.949M490.949 0.585266V16.4034M490.949 0.585266H506.767M490.949 16.4034H506.767M506.767 0.585266V16.4034M506.767 0.585266H522.585V16.4034M506.767 16.4034H522.585M506.767 16.4034V32.2216M522.585 16.4034V32.2216M16.4034 32.2216H0.585205M16.4034 32.2216V48.0398M0.585205 32.2216V48.0398M111.312 32.2216H95.4943M111.312 32.2216V48.0398M95.4943 32.2216V48.0398M142.949 32.2216H127.131M142.949 32.2216H158.767M142.949 32.2216V48.0398H127.131V32.2216M158.767 32.2216H174.585M158.767 32.2216V48.0398M174.585 32.2216H190.403M174.585 32.2216V48.0398M190.403 16.4034V32.2216M190.403 32.2216H206.222M206.222 32.2216H222.04M206.222 32.2216V48.0398H222.04M269.494 32.2216H253.676M269.494 32.2216V48.0398M348.585 32.2216H332.767M348.585 32.2216V48.0398M348.585 32.2216H364.403M332.767 32.2216V48.0398M396.04 32.2216H380.222M396.04 32.2216V48.0398M380.222 32.2216H364.403M380.222 32.2216V48.0398M427.676 32.2216H411.858M427.676 32.2216V48.0398M411.858 32.2216V48.0398M522.585 32.2216H506.767M522.585 32.2216V48.0398M506.767 32.2216V48.0398M16.4034 48.0398H0.585205M16.4034 48.0398V63.858M0.585205 48.0398V63.858M48.0398 32.2216H32.2216V48.0398M48.0398 32.2216V48.0398M48.0398 32.2216H63.8579M48.0398 48.0398H32.2216M48.0398 48.0398H63.8579M48.0398 48.0398V63.858M32.2216 48.0398V63.858M63.8579 32.2216V48.0398M63.8579 32.2216H79.6761V48.0398M63.8579 48.0398H79.6761M63.8579 48.0398V63.858M79.6761 48.0398V63.858M111.312 48.0398H95.4943M111.312 48.0398V63.858M95.4943 48.0398V63.858M174.585 48.0398H158.767M174.585 48.0398V63.858M158.767 48.0398V63.858M222.04 32.2216V48.0398M222.04 32.2216H237.858M222.04 48.0398H237.858M237.858 32.2216V48.0398M237.858 32.2216H253.676M237.858 48.0398H253.676M253.676 32.2216V48.0398M253.676 48.0398H269.494M253.676 48.0398V63.858M269.494 48.0398V63.858M348.585 48.0398H332.767M348.585 48.0398H364.403M348.585 48.0398V63.858M332.767 48.0398H316.949V63.858M332.767 48.0398V63.858M364.403 32.2216V48.0398M364.403 48.0398H380.222M364.403 48.0398V63.858M380.222 48.0398H396.04M380.222 48.0398V63.858M396.04 48.0398V63.858H380.222M427.676 48.0398H411.858M427.676 48.0398V63.858M411.858 48.0398V63.858M459.312 32.2216H443.494V48.0398M459.312 32.2216V48.0398M459.312 32.2216H475.131M459.312 48.0398H443.494M459.312 48.0398H475.131M459.312 48.0398V63.858M443.494 48.0398V63.858M475.131 32.2216V48.0398M475.131 32.2216H490.949V48.0398M475.131 48.0398H490.949M475.131 48.0398V63.858M490.949 48.0398V63.858M522.585 48.0398H506.767M522.585 48.0398V63.858M506.767 48.0398V63.858M16.4034 63.858H0.585205M16.4034 63.858V79.6762M0.585205 63.858V79.6762M48.0398 63.858H32.2216M48.0398 63.858H63.8579M48.0398 63.858V79.6762M32.2216 63.858V79.6762H48.0398M63.8579 63.858H79.6761M63.8579 63.858V79.6762M79.6761 63.858V79.6762H63.8579M111.312 63.858H95.4943M111.312 63.858V79.6762M95.4943 63.858V79.6762M174.585 63.858H158.767M174.585 63.858H190.403V79.6762H174.585V63.858ZM158.767 63.858H142.949V79.6762M158.767 63.858V79.6762M269.494 63.858H253.676M269.494 63.858V79.6762H253.676V63.858M332.767 63.858H316.949M332.767 63.858V79.6762M316.949 63.858H301.131V79.6762M316.949 63.858V79.6762M364.403 63.858H348.585M364.403 63.858H380.222M364.403 63.858V79.6762M348.585 63.858V79.6762H364.403M427.676 63.858H411.858M427.676 63.858V79.6762M411.858 63.858V79.6762M459.312 63.858H443.494M459.312 63.858H475.131M459.312 63.858V79.6762M443.494 63.858V79.6762H459.312M475.131 63.858H490.949M475.131 63.858V79.6762M490.949 63.858V79.6762H475.131M522.585 63.858H506.767M522.585 63.858V79.6762M506.767 63.858V79.6762M16.4034 79.6762H0.585205M16.4034 79.6762V95.4944M0.585205 79.6762V95.4944M48.0398 79.6762H63.8579M111.312 79.6762H95.4943M111.312 79.6762V95.4944M95.4943 79.6762V95.4944M158.767 79.6762H142.949M158.767 79.6762V95.4944M142.949 79.6762H127.131V95.4944M142.949 79.6762V95.4944M222.04 63.858H206.222V79.6762H222.04M222.04 63.858V79.6762M222.04 63.858H237.858V79.6762H222.04M316.949 79.6762H301.131M316.949 79.6762H332.767M316.949 79.6762V95.4944M301.131 79.6762H285.312V95.4944M301.131 79.6762V95.4944M332.767 79.6762V95.4944M364.403 79.6762H380.222M364.403 79.6762V95.4944M427.676 79.6762H411.858M427.676 79.6762V95.4944M411.858 79.6762V95.4944M459.312 79.6762H475.131M522.585 79.6762H506.767M522.585 79.6762V95.4944M506.767 79.6762V95.4944M16.4034 95.4944H0.585205M16.4034 95.4944V111.313M16.4034 95.4944H32.2216M0.585205 95.4944V111.313H16.4034M111.312 95.4944H95.4943M111.312 95.4944V111.313H95.4943M95.4943 95.4944H79.6761M95.4943 95.4944V111.313M142.949 95.4944H127.131M142.949 95.4944H158.767M142.949 95.4944V111.313M127.131 95.4944V111.313M158.767 95.4944H174.585V111.313M158.767 95.4944V111.313M301.131 95.4944H285.312M301.131 95.4944V111.313M285.312 95.4944V111.313M332.767 95.4944H316.949M332.767 95.4944V111.313M316.949 95.4944V111.313M380.222 79.6762V95.4944M380.222 79.6762H396.04V95.4944M380.222 95.4944H364.403M380.222 95.4944H396.04M380.222 95.4944V111.313M364.403 95.4944H348.585V111.313M364.403 95.4944V111.313M396.04 95.4944V111.313H380.222M427.676 95.4944H411.858M427.676 95.4944V111.313M427.676 95.4944H443.494M411.858 95.4944V111.313H427.676M522.585 95.4944H506.767M522.585 95.4944V111.313H506.767M506.767 95.4944H490.949M506.767 95.4944V111.313M16.4034 111.313H32.2216M32.2216 95.4944V111.313M32.2216 95.4944H48.0398M32.2216 111.313H48.0398M48.0398 95.4944V111.313M48.0398 95.4944H63.8579M48.0398 111.313H63.8579M63.8579 95.4944V111.313M63.8579 95.4944H79.6761M63.8579 111.313H79.6761M79.6761 95.4944V111.313M79.6761 111.313H95.4943M142.949 111.313H127.131M142.949 111.313V127.131M127.131 111.313V127.131M174.585 111.313H158.767M174.585 111.313V127.131H158.767V111.313M206.222 111.313V95.4944H190.403V111.313H206.222ZM206.222 111.313H222.04M206.222 111.313V127.131M237.858 111.313V95.4944H222.04V111.313M237.858 111.313H222.04M237.858 111.313V127.131M222.04 111.313V127.131M301.131 111.313H285.312M301.131 111.313V127.131M285.312 111.313V127.131M332.767 111.313H316.949M332.767 111.313V127.131M332.767 111.313H348.585M316.949 111.313V127.131M364.403 111.313H348.585M364.403 111.313V127.131M364.403 111.313H380.222M348.585 111.313V127.131M380.222 111.313V127.131M427.676 111.313H443.494M443.494 95.4944V111.313M443.494 95.4944H459.312M443.494 111.313H459.312M459.312 95.4944V111.313M459.312 95.4944H475.131M459.312 111.313H475.131M475.131 95.4944V111.313M475.131 95.4944H490.949M475.131 111.313H490.949M490.949 95.4944V111.313M490.949 111.313H506.767M142.949 127.131H127.131M142.949 127.131V142.949H127.131V127.131M222.04 127.131H206.222M222.04 127.131H237.858M222.04 127.131V142.949M206.222 127.131H190.403V142.949M206.222 127.131V142.949M237.858 127.131V142.949M301.131 127.131H285.312M301.131 127.131H316.949M301.131 127.131V142.949M285.312 127.131H269.494V142.949H285.312M285.312 127.131V142.949M332.767 127.131H316.949M332.767 127.131H348.585M332.767 127.131V142.949M316.949 127.131V142.949M348.585 127.131H364.403M348.585 127.131V142.949M364.403 127.131H380.222M364.403 127.131V142.949M380.222 127.131V142.949M380.222 127.131H396.04M48.0398 127.131H32.2216V142.949H48.0398M48.0398 127.131V142.949M48.0398 127.131H63.8579M48.0398 142.949H63.8579M63.8579 127.131V142.949M63.8579 127.131H79.6761V142.949M63.8579 142.949H79.6761M79.6761 142.949H95.4943M79.6761 142.949V158.767M95.4943 142.949H111.312V127.131H95.4943V142.949ZM95.4943 142.949V158.767M206.222 142.949H190.403M206.222 142.949V158.767M206.222 142.949H222.04M190.403 142.949H174.585V158.767M190.403 142.949V158.767M237.858 142.949H222.04M237.858 142.949V158.767M222.04 142.949V158.767M285.312 142.949H301.131M285.312 142.949V158.767M316.949 142.949H301.131M316.949 142.949H332.767M316.949 142.949V158.767M301.131 142.949V158.767M332.767 142.949H348.585M332.767 142.949V158.767M364.403 142.949H348.585M364.403 142.949H380.222M364.403 142.949V158.767H380.222M348.585 142.949V158.767M380.222 142.949H396.04M380.222 142.949V158.767M396.04 127.131V142.949M396.04 127.131H411.858M396.04 142.949H411.858M396.04 142.949V158.767M411.858 127.131V142.949M411.858 127.131H427.676M411.858 142.949H427.676M411.858 142.949V158.767M427.676 127.131V142.949M427.676 127.131H443.494V142.949H427.676M427.676 142.949V158.767M490.949 127.131H475.131V142.949M490.949 127.131V142.949M490.949 127.131H506.767M490.949 142.949H475.131M490.949 142.949H506.767M490.949 142.949V158.767M475.131 142.949V158.767M506.767 127.131V142.949M506.767 127.131H522.585V142.949M506.767 142.949H522.585M506.767 142.949V158.767M522.585 142.949V158.767H506.767M95.4943 158.767H79.6761M95.4943 158.767V174.585M95.4943 158.767H111.312V174.585M79.6761 158.767V174.585M190.403 158.767H174.585M190.403 158.767H206.222M190.403 158.767V174.585M174.585 158.767H158.767M174.585 158.767V174.585M206.222 158.767H222.04M222.04 158.767H237.858M222.04 158.767V174.585M237.858 158.767V174.585M301.131 158.767H285.312M301.131 158.767H316.949M301.131 158.767V174.585M285.312 158.767H269.494M285.312 158.767V174.585M316.949 158.767V174.585M316.949 158.767H332.767M348.585 158.767H332.767M348.585 158.767V174.585M332.767 158.767V174.585M380.222 158.767H396.04M380.222 158.767V174.585M411.858 158.767H396.04M411.858 158.767H427.676M396.04 158.767V174.585M427.676 158.767H443.494V174.585H427.676V158.767ZM490.949 158.767H475.131M490.949 158.767H506.767M490.949 158.767V174.585M475.131 158.767H459.312V174.585H475.131M475.131 158.767V174.585M506.767 158.767V174.585M16.4034 158.767H0.585205V174.585H16.4034M16.4034 158.767V174.585M16.4034 158.767H32.2216M16.4034 174.585H32.2216M16.4034 174.585V190.403M32.2216 158.767V174.585M32.2216 158.767H48.0398V174.585M32.2216 174.585H48.0398M32.2216 174.585V190.403M48.0398 174.585V190.403M95.4943 174.585H79.6761M95.4943 174.585H111.312M79.6761 174.585H63.8579V190.403M79.6761 174.585V190.403M111.312 174.585H127.131M111.312 174.585V190.403M158.767 158.767H142.949V174.585M158.767 158.767V174.585M158.767 174.585H142.949M158.767 174.585H174.585M158.767 174.585V190.403M142.949 174.585H127.131M142.949 174.585V190.403M174.585 174.585H190.403M174.585 174.585V190.403M190.403 174.585H206.222M190.403 174.585V190.403M237.858 174.585H222.04M237.858 174.585V190.403H222.04M222.04 174.585H206.222M222.04 174.585V190.403M269.494 158.767H253.676V174.585H269.494M269.494 158.767V174.585M269.494 174.585H285.312M285.312 174.585H301.131M285.312 174.585V190.403H301.131M301.131 174.585H316.949M301.131 174.585V190.403M316.949 174.585H332.767M316.949 174.585V190.403M332.767 174.585H348.585M332.767 174.585V190.403M348.585 174.585V190.403M348.585 174.585H364.403M396.04 174.585H380.222M396.04 174.585H411.858V190.403H396.04M396.04 174.585V190.403M380.222 174.585H364.403M380.222 174.585V190.403M475.131 174.585H490.949M475.131 174.585V190.403H490.949M490.949 174.585H506.767M490.949 174.585V190.403M506.767 174.585V190.403M506.767 174.585H522.585V190.403H506.767M32.2216 190.403H16.4034M32.2216 190.403H48.0398M32.2216 190.403V206.222H16.4034V190.403M48.0398 190.403H63.8579M48.0398 190.403V206.222H63.8579M79.6761 190.403H63.8579M79.6761 190.403V206.222M63.8579 190.403V206.222M127.131 174.585V190.403M127.131 190.403H111.312M127.131 190.403H142.949M111.312 190.403H95.4943V206.222M111.312 190.403V206.222H95.4943M142.949 190.403H158.767M158.767 190.403H174.585M174.585 190.403H190.403M174.585 190.403V206.222M206.222 174.585V190.403M206.222 190.403H190.403M206.222 190.403H222.04M190.403 190.403V206.222M301.131 190.403H316.949M301.131 190.403V206.222H316.949M332.767 190.403H316.949M332.767 190.403H348.585M332.767 190.403V206.222M316.949 190.403V206.222M348.585 190.403H364.403M348.585 190.403V206.222M364.403 174.585V190.403M364.403 190.403H380.222M364.403 190.403V206.222M380.222 190.403V206.222M380.222 190.403H396.04M396.04 190.403V206.222H380.222M490.949 190.403H506.767M63.8579 206.222H79.6761M79.6761 206.222H95.4943M79.6761 206.222V222.04M95.4943 206.222V222.04M190.403 206.222H174.585M190.403 206.222H206.222V222.04L190.403 222.04M190.403 206.222V222.04M174.585 206.222H158.767M174.585 206.222V222.04M348.585 206.222H332.767M348.585 206.222H364.403M348.585 206.222V222.04M332.767 206.222L316.949 206.222M332.767 206.222V222.04H316.949V206.222M380.222 206.222H364.403M380.222 206.222V222.04H364.403M364.403 206.222V222.04M443.494 190.403H427.676V206.222M443.494 190.403V206.222M443.494 190.403H459.312V206.222M443.494 206.222H427.676M443.494 206.222H459.312M427.676 206.222H411.858V222.04H427.676V206.222ZM459.312 206.222H475.131V222.04H459.312M459.312 206.222V222.04M95.4943 222.04H79.6761M95.4943 222.04V237.858M95.4943 222.04H111.312V237.858M79.6761 222.04H63.8579M79.6761 222.04V237.858M142.949 206.222H127.131V222.04M142.949 206.222V222.04M142.949 206.222H158.767M142.949 222.04H127.131M142.949 222.04H158.767M142.949 222.04V237.858M127.131 222.04V237.858M158.767 206.222V222.04M158.767 222.04H174.585M174.585 222.04H190.403M174.585 222.04V237.858M364.403 222.04H348.585M364.403 222.04V237.858M348.585 222.04V237.858M459.312 222.04H443.494V237.858M459.312 222.04V237.858M506.767 222.04H522.585V206.222H506.767V222.04ZM506.767 222.04H490.949V237.858M506.767 222.04V237.858M16.4034 237.858V222.04H0.585205V237.858M16.4034 237.858H0.585205M16.4034 237.858V253.676M16.4034 237.858H32.2216M0.585205 237.858V253.676M48.0398 222.04H32.2216V237.858M48.0398 222.04V237.858M48.0398 222.04H63.8579M48.0398 237.858H32.2216M48.0398 237.858H63.8579M48.0398 237.858V253.676M32.2216 237.858V253.676M63.8579 222.04V237.858M63.8579 237.858H79.6761M79.6761 237.858H95.4943M95.4943 237.858H111.312M111.312 237.858H127.131M111.312 237.858V253.676M142.949 237.858H127.131M142.949 237.858H158.767M142.949 237.858V253.676H158.767M127.131 237.858V253.676H111.312M190.403 222.04V237.858M190.403 237.858H174.585M190.403 237.858V253.676H174.585M174.585 237.858H158.767M174.585 237.858V253.676M364.403 237.858H348.585M364.403 237.858V253.676M348.585 237.858H332.767V253.676H348.585M348.585 237.858V253.676M459.312 237.858H443.494M459.312 237.858V253.676M459.312 237.858H475.131M443.494 237.858V253.676M506.767 237.858H490.949M506.767 237.858V253.676M506.767 237.858H522.585V253.676M490.949 237.858H475.131M490.949 237.858V253.676M16.4034 253.676H0.585205M16.4034 253.676H32.2216M16.4034 253.676V269.494M0.585205 253.676V269.494H16.4034M32.2216 253.676H48.0398M32.2216 253.676V269.494M48.0398 253.676V269.494M111.312 253.676H95.4943M111.312 253.676V269.494M158.767 237.858V253.676M158.767 253.676H174.585M348.585 253.676H364.403M364.403 253.676H380.222V269.494M364.403 253.676V269.494M411.858 253.676H427.676V237.858H411.858V253.676ZM411.858 253.676H396.04V269.494M411.858 253.676V269.494M459.312 253.676H443.494M459.312 253.676H475.131M459.312 253.676V269.494H443.494V253.676M475.131 237.858V253.676M475.131 253.676H490.949M490.949 253.676H506.767M490.949 253.676V269.494H506.767M506.767 253.676H522.585M506.767 253.676V269.494M522.585 253.676V269.494M16.4034 269.494H32.2216M32.2216 269.494H48.0398M32.2216 269.494V285.313M48.0398 269.494V285.313M79.6761 253.676H63.8579V269.494H79.6761M79.6761 253.676V269.494M79.6761 253.676H95.4943M79.6761 269.494H95.4943M95.4943 253.676V269.494M95.4943 269.494H111.312M111.312 269.494H127.131V285.313M111.312 269.494V285.313M380.222 269.494H364.403M380.222 269.494V285.313M380.222 269.494H396.04M364.403 269.494V285.313H380.222M411.858 269.494H396.04M411.858 269.494H427.676V285.313M411.858 269.494V285.313M396.04 269.494V285.313M506.767 269.494H522.585M506.767 269.494V285.313H522.585V269.494M48.0398 285.313H32.2216M48.0398 285.313V301.131M32.2216 285.313H16.4034M32.2216 285.313V301.131M127.131 285.313H111.312M127.131 285.313V301.131M111.312 285.313H95.4943M111.312 285.313V301.131M158.767 285.313V269.494H142.949V285.313M158.767 285.313H142.949M158.767 285.313V301.131M142.949 285.313V301.131M380.222 285.313H396.04M396.04 285.313H411.858M396.04 285.313V301.131M427.676 285.313H411.858M427.676 285.313V301.131M427.676 285.313H443.494M411.858 285.313V301.131M16.4034 285.313H0.585205V301.131M16.4034 285.313V301.131M16.4034 301.131H0.585205M16.4034 301.131H32.2216M16.4034 301.131V316.949M0.585205 301.131V316.949H16.4034M32.2216 301.131H48.0398M32.2216 301.131V316.949M48.0398 301.131H63.8579V316.949M48.0398 301.131V316.949M95.4943 285.313H79.6761V301.131M95.4943 285.313V301.131M95.4943 301.131H79.6761M95.4943 301.131H111.312M95.4943 301.131V316.949M79.6761 301.131V316.949M111.312 301.131H127.131M111.312 301.131V316.949M127.131 301.131V316.949M127.131 301.131H142.949M158.767 301.131H142.949M158.767 301.131V316.949M158.767 301.131H174.585M142.949 301.131V316.949M190.403 301.131V285.313H174.585V301.131M190.403 301.131H174.585M190.403 301.131V316.949H174.585M174.585 301.131V316.949M411.858 301.131H396.04M411.858 301.131H427.676M411.858 301.131V316.949H396.04M396.04 301.131H380.222M396.04 301.131V316.949M427.676 301.131H443.494M443.494 285.313V301.131M443.494 285.313H459.312V301.131M443.494 301.131H459.312M459.312 301.131H475.131M459.312 301.131V316.949M490.949 301.131V285.313H475.131V301.131M490.949 301.131H475.131M490.949 301.131V316.949H475.131M475.131 301.131V316.949M16.4034 316.949H32.2216M32.2216 316.949H48.0398M32.2216 316.949V332.767H48.0398M63.8579 316.949H48.0398M63.8579 316.949V332.767M63.8579 316.949H79.6761M48.0398 316.949V332.767M95.4943 316.949H79.6761M95.4943 316.949V332.767M95.4943 316.949H111.312M79.6761 316.949V332.767M127.131 316.949H111.312M127.131 316.949H142.949M127.131 316.949V332.767H111.312M111.312 316.949V332.767M142.949 316.949H158.767M158.767 316.949H174.585M348.585 316.949V301.131H332.767V316.949H348.585ZM348.585 316.949H364.403M348.585 316.949V332.767M380.222 301.131H364.403V316.949M380.222 301.131V316.949M380.222 316.949H364.403M380.222 316.949H396.04M380.222 316.949V332.767M364.403 316.949V332.767H348.585M396.04 316.949V332.767M475.131 316.949H459.312M475.131 316.949V332.767M459.312 316.949H443.494M459.312 316.949V332.767M48.0398 332.767H63.8579M63.8579 332.767H79.6761M79.6761 332.767H95.4943M79.6761 332.767V348.585M95.4943 332.767H111.312M95.4943 332.767V348.585M348.585 332.767H332.767V348.585H348.585M348.585 332.767V348.585M396.04 332.767H380.222M396.04 332.767V348.585H380.222V332.767M443.494 316.949H427.676V332.767M443.494 316.949V332.767M443.494 332.767H427.676M443.494 332.767H459.312M427.676 332.767H411.858V348.585H427.676V332.767ZM459.312 332.767H475.131M459.312 332.767V348.585M475.131 332.767V348.585M475.131 332.767H490.949V348.585M16.4034 348.585V332.767H0.585205V348.585M16.4034 348.585H0.585205M16.4034 348.585V364.403M0.585205 348.585V364.403M95.4943 348.585H79.6761M95.4943 348.585V364.403M95.4943 348.585H111.312V364.403H95.4943M79.6761 348.585V364.403M158.767 332.767H142.949V348.585H158.767M158.767 332.767V348.585M158.767 332.767H174.585V348.585H158.767M206.222 332.767H190.403V348.585M206.222 332.767V348.585M206.222 332.767H222.04M206.222 332.767V316.949H222.04V332.767M206.222 348.585H190.403M206.222 348.585V364.403M206.222 348.585H222.04M190.403 348.585V364.403H206.222M222.04 332.767H237.858V348.585M222.04 332.767V348.585M237.858 348.585H222.04M237.858 348.585V364.403M237.858 348.585H253.676M222.04 348.585V364.403M269.494 332.767H253.676V348.585M269.494 332.767V348.585M269.494 332.767H285.312V348.585H269.494M269.494 348.585H253.676M253.676 348.585V364.403M316.949 348.585V332.767H301.131V348.585M316.949 348.585H301.131M316.949 348.585V364.403H301.131V348.585M348.585 348.585H364.403V364.403M348.585 348.585V364.403M475.131 348.585H459.312M475.131 348.585H490.949M475.131 348.585V364.403M459.312 348.585V364.403M490.949 348.585V364.403M490.949 348.585H506.767M506.767 348.585H522.585V332.767H506.767V348.585ZM506.767 348.585V364.403M16.4034 364.403H0.585205M16.4034 364.403V380.222M0.585205 364.403V380.222M95.4943 364.403H79.6761M95.4943 364.403V380.222M79.6761 364.403H63.8579M79.6761 364.403V380.222M206.222 364.403H222.04M206.222 364.403V380.222M222.04 364.403H237.858M222.04 364.403V380.222M237.858 364.403H253.676M253.676 364.403H269.494M253.676 364.403V380.222H269.494M364.403 364.403H348.585M364.403 364.403V380.222M364.403 364.403H380.222V380.222M348.585 364.403H332.767V380.222H348.585M348.585 364.403V380.222M475.131 364.403H459.312M475.131 364.403H490.949M475.131 364.403V380.222M459.312 364.403H443.494V380.222M459.312 364.403V380.222M490.949 364.403H506.767M490.949 364.403V380.222M506.767 364.403V380.222M506.767 364.403H522.585V380.222M16.4034 380.222H0.585205M16.4034 380.222V396.04H0.585205V380.222M48.0398 364.403H32.2216V380.222H48.0398M48.0398 364.403V380.222M48.0398 364.403H63.8579M48.0398 380.222H63.8579M63.8579 364.403V380.222M63.8579 380.222H79.6761M79.6761 380.222H95.4943M95.4943 380.222H111.312M95.4943 380.222V396.04H111.312M222.04 380.222H206.222M222.04 380.222V396.04M206.222 380.222V396.04M269.494 364.403V380.222M269.494 364.403H285.312V380.222M269.494 380.222H285.312M285.312 380.222H301.131M285.312 380.222V396.04M348.585 380.222H364.403M348.585 380.222V396.04M364.403 380.222H380.222M364.403 380.222V396.04M380.222 380.222V396.04M380.222 380.222H396.04M459.312 380.222H443.494M459.312 380.222H475.131M459.312 380.222V396.04M443.494 380.222H427.676M443.494 380.222V396.04M475.131 380.222H490.949M490.949 380.222H506.767M506.767 380.222H522.585M506.767 380.222V396.04M522.585 380.222V396.04M111.312 380.222V396.04M111.312 380.222H127.131V396.04M111.312 396.04H127.131M127.131 396.04H142.949M127.131 396.04V411.858H142.949M158.767 396.04V380.222H142.949V396.04M158.767 396.04H142.949M158.767 396.04V411.858H142.949M142.949 396.04V411.858M222.04 396.04H206.222M222.04 396.04V411.858H206.222V396.04M301.131 380.222V396.04M301.131 380.222H316.949V396.04M301.131 396.04H285.312M301.131 396.04H316.949M301.131 396.04V411.858M285.312 396.04H269.494V411.858M285.312 396.04V411.858M316.949 396.04V411.858M364.403 396.04H348.585M364.403 396.04H380.222M364.403 396.04V411.858M348.585 396.04V411.858M380.222 396.04H396.04M380.222 396.04V411.858M396.04 380.222V396.04M396.04 380.222H411.858M396.04 396.04H411.858M396.04 396.04V411.858M411.858 380.222V396.04M411.858 380.222H427.676M411.858 396.04H427.676M427.676 380.222V396.04M427.676 396.04H443.494M443.494 396.04H459.312M443.494 396.04V411.858M459.312 396.04V411.858M459.312 396.04H475.131V411.858H459.312M522.585 396.04H506.767M522.585 396.04V411.858H506.767M506.767 396.04H490.949V411.858M506.767 396.04V411.858M190.403 411.858V396.04H174.585V411.858M190.403 411.858H174.585M190.403 411.858V427.676M174.585 411.858V427.676M253.676 411.858V396.04H237.858V411.858M253.676 411.858H237.858M253.676 411.858V427.676M253.676 411.858H269.494M237.858 411.858V427.676H253.676M285.312 411.858H269.494M285.312 411.858H301.131M269.494 411.858V427.676M301.131 411.858H316.949M301.131 411.858V427.676M316.949 411.858V427.676M316.949 411.858H332.767V427.676M364.403 411.858H348.585M364.403 411.858V427.676M364.403 411.858H380.222M348.585 411.858V427.676H364.403M396.04 411.858H380.222M396.04 411.858V427.676M380.222 411.858V427.676M459.312 411.858H443.494M459.312 411.858V427.676M443.494 411.858V427.676M506.767 411.858H490.949M506.767 411.858V427.676M490.949 411.858V427.676M16.4034 411.858H0.585205V427.676M16.4034 411.858V427.676M16.4034 411.858H32.2216M16.4034 427.676H0.585205M16.4034 427.676H32.2216M16.4034 427.676V443.494M0.585205 427.676V443.494M32.2216 411.858V427.676M32.2216 411.858H48.0398M32.2216 427.676H48.0398M48.0398 411.858V427.676M48.0398 411.858H63.8579M48.0398 427.676H63.8579M63.8579 411.858V427.676M63.8579 411.858H79.6761M63.8579 427.676H79.6761M79.6761 411.858V427.676M79.6761 411.858H95.4943M79.6761 427.676H95.4943M95.4943 411.858V427.676M95.4943 411.858H111.312V427.676M95.4943 427.676H111.312M95.4943 427.676V443.494M111.312 427.676V443.494M190.403 427.676H174.585M190.403 427.676V443.494M174.585 427.676V443.494M253.676 427.676H269.494M253.676 427.676V443.494M269.494 427.676V443.494M269.494 427.676H285.312M316.949 427.676H301.131M316.949 427.676H332.767M316.949 427.676V443.494M301.131 427.676H285.312M301.131 427.676V443.494H285.312M332.767 427.676V443.494M364.403 427.676H380.222M364.403 427.676V443.494M380.222 427.676H396.04M380.222 427.676V443.494M396.04 427.676V443.494M459.312 427.676H443.494M459.312 427.676V443.494M459.312 427.676H475.131M443.494 427.676V443.494M506.767 427.676H490.949M506.767 427.676V443.494M506.767 427.676H522.585V443.494M490.949 427.676H475.131M490.949 427.676V443.494M16.4034 443.494H0.585205M16.4034 443.494V459.313M0.585205 443.494V459.313M111.312 443.494H95.4943M111.312 443.494V459.313M95.4943 443.494V459.313M190.403 443.494H174.585M190.403 443.494V459.313M174.585 443.494V459.313M269.494 443.494H253.676M269.494 443.494H285.312M269.494 443.494V459.313M253.676 443.494H237.858M253.676 443.494V459.313M285.312 427.676V443.494M285.312 443.494V459.313H269.494M332.767 443.494H316.949M332.767 443.494V459.313M332.767 443.494H348.585M316.949 443.494V459.313M380.222 443.494H364.403M380.222 443.494H396.04M380.222 443.494V459.313M364.403 443.494H348.585M364.403 443.494V459.313M396.04 443.494V459.313M396.04 443.494H411.858M459.312 443.494H443.494M459.312 443.494H475.131M459.312 443.494V459.313M443.494 443.494H427.676M443.494 443.494V459.313M475.131 427.676V443.494M475.131 443.494H490.949M490.949 443.494H506.767M490.949 443.494V459.313M506.767 443.494H522.585M506.767 443.494V459.313M522.585 443.494V459.313H506.767M16.4034 459.313H0.585205M16.4034 459.313V475.131M0.585205 459.313V475.131M48.0398 443.494H32.2216V459.313M48.0398 443.494V459.313M48.0398 443.494H63.8579M48.0398 459.313H32.2216M48.0398 459.313H63.8579M48.0398 459.313V475.131M32.2216 459.313V475.131M63.8579 443.494V459.313M63.8579 443.494H79.6761V459.313M63.8579 459.313H79.6761M63.8579 459.313V475.131M79.6761 459.313V475.131M111.312 459.313H95.4943M111.312 459.313V475.131M95.4943 459.313V475.131M142.949 459.313V443.494H127.131V459.313M142.949 459.313H127.131M142.949 459.313V475.131M127.131 459.313V475.131M190.403 459.313H174.585M190.403 459.313V475.131M190.403 459.313H206.222M174.585 459.313V475.131M237.858 443.494H222.04V459.313M237.858 443.494V459.313M237.858 459.313H222.04M237.858 459.313H253.676M237.858 459.313V475.131M222.04 459.313H206.222M222.04 459.313V475.131M253.676 459.313H269.494M253.676 459.313V475.131M269.494 459.313V475.131M332.767 459.313H316.949M332.767 459.313H348.585M316.949 459.313H301.131V475.131M316.949 459.313V475.131M348.585 443.494V459.313M348.585 459.313H364.403M364.403 459.313H380.222M364.403 459.313V475.131H380.222M396.04 459.313H380.222M396.04 459.313H411.858M396.04 459.313V475.131M380.222 459.313V475.131M411.858 443.494V459.313M411.858 443.494H427.676M411.858 459.313H427.676M411.858 459.313V475.131M427.676 443.494V459.313M427.676 459.313H443.494M443.494 459.313H459.312M443.494 459.313V475.131H459.312M459.312 459.313V475.131M506.767 459.313H490.949M506.767 459.313V475.131H490.949M490.949 459.313H475.131V475.131M490.949 459.313V475.131M16.4034 475.131H0.585205M16.4034 475.131V490.949M0.585205 475.131V490.949M48.0398 475.131H32.2216M48.0398 475.131H63.8579M48.0398 475.131V490.949M32.2216 475.131V490.949H48.0398M63.8579 475.131H79.6761M63.8579 475.131V490.949M79.6761 475.131V490.949H63.8579M111.312 475.131H95.4943M111.312 475.131V490.949M95.4943 475.131V490.949M142.949 475.131H127.131M142.949 475.131V490.949M127.131 475.131V490.949H142.949M190.403 475.131H174.585M190.403 475.131H206.222M190.403 475.131V490.949M174.585 475.131H158.767V490.949M174.585 475.131V490.949M206.222 459.313V475.131M206.222 475.131H222.04M206.222 475.131V490.949M222.04 475.131H237.858M222.04 475.131V490.949M253.676 475.131H237.858M253.676 475.131H269.494M253.676 475.131V490.949M237.858 475.131V490.949M269.494 475.131V490.949M269.494 475.131H285.312M316.949 475.131H301.131M316.949 475.131V490.949M301.131 475.131H285.312M301.131 475.131V490.949M380.222 475.131H396.04M380.222 475.131V490.949H396.04M396.04 475.131H411.858M396.04 475.131V490.949M411.858 475.131V490.949M411.858 475.131H427.676V490.949M459.312 475.131H475.131M459.312 475.131V490.949M490.949 475.131H475.131M475.131 475.131V490.949M16.4034 490.949H0.585205M16.4034 490.949V506.767M0.585205 490.949V506.767M48.0398 490.949H63.8579M111.312 490.949H95.4943M111.312 490.949V506.767M95.4943 490.949V506.767M142.949 490.949H158.767M142.949 490.949V506.767H158.767M174.585 490.949H158.767M174.585 490.949H190.403M174.585 490.949V506.767M158.767 490.949V506.767M190.403 490.949H206.222M190.403 490.949V506.767M206.222 490.949H222.04M206.222 490.949V506.767M237.858 490.949H222.04M237.858 490.949H253.676M237.858 490.949V506.767M222.04 490.949V506.767M253.676 490.949H269.494M253.676 490.949V506.767H269.494M269.494 490.949H285.312M269.494 490.949V506.767M285.312 475.131V490.949M285.312 490.949H301.131M285.312 490.949V506.767M301.131 490.949H316.949M301.131 490.949V506.767M316.949 490.949H332.767M316.949 490.949V506.767M348.585 490.949V475.131H332.767V490.949M348.585 490.949H332.767M348.585 490.949H364.403V506.767M348.585 490.949V506.767H364.403M332.767 490.949V506.767M396.04 490.949H411.858M396.04 490.949V506.767M411.858 490.949H427.676M411.858 490.949V506.767M427.676 490.949V506.767M427.676 490.949H443.494V506.767H427.676M475.131 490.949H459.312M475.131 490.949V506.767M475.131 490.949H490.949V506.767M459.312 490.949V506.767H475.131M16.4034 506.767H0.585205M16.4034 506.767V522.585M16.4034 506.767H32.2216M0.585205 506.767V522.585H16.4034M111.312 506.767H95.4943M111.312 506.767V522.585H95.4943M95.4943 506.767H79.6761M95.4943 506.767V522.585M158.767 506.767H174.585M158.767 506.767V522.585H174.585V506.767M190.403 506.767H174.585M190.403 506.767H206.222M190.403 506.767V522.585H206.222V506.767M222.04 506.767H206.222M222.04 506.767H237.858M222.04 506.767V522.585H237.858V506.767M269.494 506.767H285.312M269.494 506.767V522.585H285.312V506.767M285.312 506.767H301.131M301.131 506.767H316.949M301.131 506.767V522.585H316.949M332.767 506.767H316.949M332.767 506.767V522.585H316.949M316.949 506.767V522.585M364.403 506.767H380.222M364.403 506.767V522.585H380.222M411.858 506.767H396.04M411.858 506.767H427.676M411.858 506.767V522.585H396.04M396.04 506.767H380.222M396.04 506.767V522.585M475.131 506.767H490.949M490.949 506.767H506.767V522.585H490.949V506.767ZM16.4034 522.585H32.2216M32.2216 506.767V522.585M32.2216 506.767H48.0398M32.2216 522.585H48.0398M48.0398 506.767V522.585M48.0398 506.767H63.8579M48.0398 522.585H63.8579M63.8579 506.767V522.585M63.8579 506.767H79.6761M63.8579 522.585H79.6761M79.6761 506.767V522.585M79.6761 522.585H95.4943M380.222 506.767V522.585M380.222 522.585H396.04M237.858 0.585266H253.676V16.4034H237.858V0.585266ZM253.676 95.4944H269.494V111.313H253.676V95.4944ZM332.767 269.494H348.585V285.313H332.767V269.494ZM411.858 411.858H427.676V427.676H411.858V411.858ZM222.267 190.403H238.085V206.222H222.267V190.403Z" stroke="black" stroke-width="1.17055"/>
<path d="M269.628 209.981C269.908 210.268 270.206 210.669 270.584 210.795C275.082 211.62 279.51 212.84 283.653 214.782C284.512 212.199 286.815 211.992 289.164 212.846C298.033 216.071 306.208 224.155 310.619 232.365C322.295 254.107 320.491 285.663 301.464 302.77C298.101 305.795 289.691 311.209 285.297 311.828C283.36 312.103 280.095 311.232 279.654 309.112C279.453 309.026 279.258 309.123 279.058 309.152C278.536 309.227 275.489 310.097 275.271 310.327C274.853 310.756 274.566 312.704 273.627 313.632C271.421 315.815 263.326 317.683 260.266 317.368L259.602 316.795L259.436 317.368C255.62 316.617 250.75 315.93 248.482 312.378C248.063 311.719 247.393 309.656 247.227 309.507C247.107 309.404 244.569 308.39 244.276 308.321C244.07 308.276 243.87 308.224 243.663 308.276C241.956 314.085 234.107 310.378 230.59 308.276C218.971 301.32 208.258 284.695 206.522 271.288C203.611 248.796 209.782 228.733 228.991 215.923C232.045 213.889 239.235 209.088 240.925 214.748C241.171 214.96 246.024 212.938 246.895 212.657C248.533 212.13 253.712 211.116 254.532 210.394C256.829 208.36 257.883 205.112 261.687 204.625C265.875 204.092 267.302 207.621 269.628 209.981ZM269.891 214.106C268.677 212.56 267.393 210.675 266.07 209.265C264.162 207.237 262.753 206.154 259.946 207.833C258.937 208.435 254.383 214.336 253.432 215.613C240.123 233.568 232.503 253.775 228.837 275.717C228.453 278.014 228.481 281.154 227.914 283.32C227.817 283.698 227.645 284.179 227.244 284.311C225.829 284.666 225.617 283.663 225.13 282.661C216.668 265.233 221.956 243.858 230.956 227.787C232.818 224.465 235.316 221.273 237.098 217.979C237.39 217.441 238.805 214.88 238.427 214.496C236.015 214.267 233.517 215.819 231.518 217.068C203.359 234.639 201.102 274.09 222.225 298.146C225.451 301.819 234.13 309.089 239.115 309.089C241.572 309.089 241.59 307.462 241.738 305.394C241.979 302.031 241.767 298.353 242.008 294.938C243.606 272.073 248.94 249.283 260.748 229.529C261.773 228.286 262.535 228.807 263.24 229.982C273.535 247.123 278.754 275.138 280.782 294.938C281.2 299.046 281.12 303.532 281.636 307.559C282.111 311.283 288.236 308.407 290.275 307.451C323.252 292.074 323.756 234.427 292.796 217.2C291.88 216.69 286.477 213.631 286.013 215.201C286.586 216.902 288.041 218.386 289.009 219.921C300.221 237.756 306.105 258.805 299.133 279.733C298.537 281.526 297.173 287.147 295.094 283.658C293.764 257.905 285.818 234.33 269.903 214.112L269.891 214.106ZM262.071 265.645C261.71 265.399 260.685 266.596 260.433 266.889C251.759 277.035 251.913 289.748 250.796 302.352C250.458 306.161 248.338 309.857 252.039 312.67C255.981 315.666 263.773 315.265 268.27 313.775C273.535 312.034 272.699 310.183 272.481 305.147C272.091 295.929 271.106 283.388 267.497 274.938C266.076 271.621 264.134 268.579 262.071 265.645Z" fill="black"/>
</svg>
